<?xml version="1.0" encoding="utf-8" standalone="no"?>
<!DOCTYPE svg PUBLIC "-//W3C//DTD SVG 1.1//EN"
  "http://www.w3.org/Graphics/SVG/1.1/DTD/svg11.dtd">
<!-- Created with matplotlib (http://matplotlib.org/) -->
<svg height="305pt" version="1.1" viewBox="0 0 372 305" width="372pt" xmlns="http://www.w3.org/2000/svg" xmlns:xlink="http://www.w3.org/1999/xlink">
 <defs>
  <style type="text/css">
*{stroke-linecap:butt;stroke-linejoin:round;stroke-miterlimit:100000;}
  </style>
 </defs>
 <g id="figure_1">
  <g id="patch_1">
   <path d="M 0 305.324219 
L 372.882813 305.324219 
L 372.882813 0 
L 0 0 
L 0 305.324219 
z
" style="fill:none;"/>
  </g>
  <g id="axes_1">
   <g id="patch_2">
    <path d="M 30.882813 234.972656 
L 365.682813 234.972656 
L 365.682813 11.772656 
L 30.882813 11.772656 
z
" style="fill:#eaeaf2;"/>
   </g>
   <g id="matplotlib.axis_1">
    <g id="xtick_1">
     <g id="line2d_1">
      <path clip-path="url(#p613e2666e8)" d="M 60.977195 234.972656 
L 60.977195 11.772656 
" style="fill:none;stroke:#ffffff;stroke-linecap:round;"/>
     </g>
     <g id="line2d_2">
      <defs>
       <path d="M 0 0 
L 0 0 
" id="m3e7481d5a9" style="stroke:#262626;"/>
      </defs>
      <g>
       <use style="fill:#262626;stroke:#262626;" x="60.9771945225" xlink:href="#m3e7481d5a9" y="234.97265625"/>
      </g>
     </g>
     <g id="line2d_3">
      <g>
       <use style="fill:#262626;stroke:#262626;" x="60.9771945225" xlink:href="#m3e7481d5a9" y="11.77265625"/>
      </g>
     </g>
     <g id="text_1">
      <!-- Jan 09 2016 -->
      <defs>
       <path d="M 40.4375 6.390625 
Q 35.546875 2.25 31.03125 0.53125 
Q 26.515625 -1.171875 21.34375 -1.171875 
Q 12.796875 -1.171875 8.203125 3 
Q 3.609375 7.171875 3.609375 13.671875 
Q 3.609375 17.484375 5.34375 20.625 
Q 7.078125 23.78125 9.890625 25.6875 
Q 12.703125 27.59375 16.21875 28.5625 
Q 18.796875 29.25 24.03125 29.890625 
Q 34.671875 31.15625 39.703125 32.90625 
Q 39.75 34.71875 39.75 35.203125 
Q 39.75 40.578125 37.25 42.78125 
Q 33.890625 45.75 27.25 45.75 
Q 21.046875 45.75 18.09375 43.578125 
Q 15.140625 41.40625 13.71875 35.890625 
L 5.125 37.0625 
Q 6.296875 42.578125 8.984375 45.96875 
Q 11.671875 49.359375 16.75 51.1875 
Q 21.828125 53.03125 28.515625 53.03125 
Q 35.15625 53.03125 39.296875 51.46875 
Q 43.453125 49.90625 45.40625 47.53125 
Q 47.359375 45.171875 48.140625 41.546875 
Q 48.578125 39.3125 48.578125 33.453125 
L 48.578125 21.734375 
Q 48.578125 9.46875 49.140625 6.21875 
Q 49.703125 2.984375 51.375 0 
L 42.1875 0 
Q 40.828125 2.734375 40.4375 6.390625 
M 39.703125 26.03125 
Q 34.90625 24.078125 25.34375 22.703125 
Q 19.921875 21.921875 17.671875 20.9375 
Q 15.4375 19.96875 14.203125 18.09375 
Q 12.984375 16.21875 12.984375 13.921875 
Q 12.984375 10.40625 15.640625 8.0625 
Q 18.3125 5.71875 23.4375 5.71875 
Q 28.515625 5.71875 32.46875 7.9375 
Q 36.421875 10.15625 38.28125 14.015625 
Q 39.703125 17 39.703125 22.796875 
z
" id="ArialMT-61"/>
       <path d="M 5.46875 16.546875 
L 13.921875 17.328125 
Q 14.984375 11.375 18.015625 8.6875 
Q 21.046875 6 25.78125 6 
Q 29.828125 6 32.875 7.859375 
Q 35.9375 9.71875 37.890625 12.8125 
Q 39.84375 15.921875 41.15625 21.1875 
Q 42.484375 26.46875 42.484375 31.9375 
Q 42.484375 32.515625 42.4375 33.6875 
Q 39.796875 29.5 35.234375 26.875 
Q 30.671875 24.265625 25.34375 24.265625 
Q 16.453125 24.265625 10.296875 30.703125 
Q 4.15625 37.15625 4.15625 47.703125 
Q 4.15625 58.59375 10.578125 65.234375 
Q 17 71.875 26.65625 71.875 
Q 33.640625 71.875 39.421875 68.109375 
Q 45.21875 64.359375 48.21875 57.390625 
Q 51.21875 50.4375 51.21875 37.25 
Q 51.21875 23.53125 48.234375 15.40625 
Q 45.265625 7.28125 39.375 3.03125 
Q 33.5 -1.21875 25.59375 -1.21875 
Q 17.1875 -1.21875 11.859375 3.4375 
Q 6.546875 8.109375 5.46875 16.546875 
M 41.453125 48.140625 
Q 41.453125 55.71875 37.421875 60.15625 
Q 33.40625 64.59375 27.734375 64.59375 
Q 21.875 64.59375 17.53125 59.8125 
Q 13.1875 55.03125 13.1875 47.40625 
Q 13.1875 40.578125 17.3125 36.296875 
Q 21.4375 32.03125 27.484375 32.03125 
Q 33.59375 32.03125 37.515625 36.296875 
Q 41.453125 40.578125 41.453125 48.140625 
" id="ArialMT-39"/>
       <path d="M 4.15625 35.296875 
Q 4.15625 48 6.765625 55.734375 
Q 9.375 63.484375 14.515625 67.671875 
Q 19.671875 71.875 27.484375 71.875 
Q 33.25 71.875 37.59375 69.546875 
Q 41.9375 67.234375 44.765625 62.859375 
Q 47.609375 58.5 49.21875 52.21875 
Q 50.828125 45.953125 50.828125 35.296875 
Q 50.828125 22.703125 48.234375 14.96875 
Q 45.65625 7.234375 40.5 3 
Q 35.359375 -1.21875 27.484375 -1.21875 
Q 17.140625 -1.21875 11.234375 6.203125 
Q 4.15625 15.140625 4.15625 35.296875 
M 13.1875 35.296875 
Q 13.1875 17.671875 17.3125 11.828125 
Q 21.4375 6 27.484375 6 
Q 33.546875 6 37.671875 11.859375 
Q 41.796875 17.71875 41.796875 35.296875 
Q 41.796875 52.984375 37.671875 58.78125 
Q 33.546875 64.59375 27.390625 64.59375 
Q 21.34375 64.59375 17.71875 59.46875 
Q 13.1875 52.9375 13.1875 35.296875 
" id="ArialMT-30"/>
       <path d="M 6.59375 0 
L 6.59375 51.859375 
L 14.5 51.859375 
L 14.5 44.484375 
Q 20.21875 53.03125 31 53.03125 
Q 35.6875 53.03125 39.625 51.34375 
Q 43.5625 49.65625 45.515625 46.921875 
Q 47.46875 44.1875 48.25 40.4375 
Q 48.734375 37.984375 48.734375 31.890625 
L 48.734375 0 
L 39.9375 0 
L 39.9375 31.546875 
Q 39.9375 36.921875 38.90625 39.578125 
Q 37.890625 42.234375 35.28125 43.8125 
Q 32.671875 45.40625 29.15625 45.40625 
Q 23.53125 45.40625 19.453125 41.84375 
Q 15.375 38.28125 15.375 28.328125 
L 15.375 0 
z
" id="ArialMT-6e"/>
       <path d="M 2.875 20.3125 
L 11.421875 21.484375 
Q 11.765625 13.28125 14.5 10.25 
Q 17.234375 7.234375 22.078125 7.234375 
Q 25.640625 7.234375 28.21875 8.859375 
Q 30.8125 10.5 31.78125 13.296875 
Q 32.765625 16.109375 32.765625 22.265625 
L 32.765625 71.578125 
L 42.234375 71.578125 
L 42.234375 22.796875 
Q 42.234375 13.8125 40.0625 8.875 
Q 37.890625 3.953125 33.171875 1.359375 
Q 28.46875 -1.21875 22.125 -1.21875 
Q 12.703125 -1.21875 7.6875 4.203125 
Q 2.6875 9.625 2.875 20.3125 
" id="ArialMT-4a"/>
       <path d="M 37.25 0 
L 28.46875 0 
L 28.46875 56 
Q 25.296875 52.984375 20.140625 49.953125 
Q 14.984375 46.921875 10.890625 45.40625 
L 10.890625 53.90625 
Q 18.265625 57.375 23.78125 62.296875 
Q 29.296875 67.234375 31.59375 71.875 
L 37.25 71.875 
z
" id="ArialMT-31"/>
       <path d="M 50.34375 8.453125 
L 50.34375 0 
L 3.03125 0 
Q 2.9375 3.171875 4.046875 6.109375 
Q 5.859375 10.9375 9.828125 15.625 
Q 13.8125 20.3125 21.34375 26.46875 
Q 33.015625 36.03125 37.109375 41.625 
Q 41.21875 47.21875 41.21875 52.203125 
Q 41.21875 57.421875 37.46875 61 
Q 33.734375 64.59375 27.734375 64.59375 
Q 21.390625 64.59375 17.578125 60.78125 
Q 13.765625 56.984375 13.71875 50.25 
L 4.6875 51.171875 
Q 5.609375 61.28125 11.65625 66.578125 
Q 17.71875 71.875 27.9375 71.875 
Q 38.234375 71.875 44.234375 66.15625 
Q 50.25 60.453125 50.25 52 
Q 50.25 47.703125 48.484375 43.546875 
Q 46.734375 39.40625 42.65625 34.8125 
Q 38.578125 30.21875 29.109375 22.21875 
Q 21.1875 15.578125 18.9375 13.203125 
Q 16.703125 10.84375 15.234375 8.453125 
z
" id="ArialMT-32"/>
       <path d="M 49.75 54.046875 
L 41.015625 53.375 
Q 39.84375 58.546875 37.703125 60.890625 
Q 34.125 64.65625 28.90625 64.65625 
Q 24.703125 64.65625 21.53125 62.3125 
Q 17.390625 59.28125 14.984375 53.46875 
Q 12.59375 47.65625 12.5 36.921875 
Q 15.671875 41.75 20.265625 44.09375 
Q 24.859375 46.4375 29.890625 46.4375 
Q 38.671875 46.4375 44.84375 39.96875 
Q 51.03125 33.5 51.03125 23.25 
Q 51.03125 16.5 48.125 10.71875 
Q 45.21875 4.9375 40.140625 1.859375 
Q 35.0625 -1.21875 28.609375 -1.21875 
Q 17.625 -1.21875 10.6875 6.859375 
Q 3.765625 14.9375 3.765625 33.5 
Q 3.765625 54.25 11.421875 63.671875 
Q 18.109375 71.875 29.4375 71.875 
Q 37.890625 71.875 43.28125 67.140625 
Q 48.6875 62.40625 49.75 54.046875 
M 13.875 23.1875 
Q 13.875 18.65625 15.796875 14.5 
Q 17.71875 10.359375 21.1875 8.171875 
Q 24.65625 6 28.46875 6 
Q 34.03125 6 38.03125 10.484375 
Q 42.046875 14.984375 42.046875 22.703125 
Q 42.046875 30.125 38.078125 34.390625 
Q 34.125 38.671875 28.125 38.671875 
Q 22.171875 38.671875 18.015625 34.390625 
Q 13.875 30.125 13.875 23.1875 
" id="ArialMT-36"/>
       <path id="ArialMT-20"/>
      </defs>
      <g style="fill:#262626;" transform="translate(63.5623507725 297.01640625)rotate(-90.0)scale(0.1 -0.1)">
       <use xlink:href="#ArialMT-4a"/>
       <use x="50.0" xlink:href="#ArialMT-61"/>
       <use x="105.615234375" xlink:href="#ArialMT-6e"/>
       <use x="161.23046875" xlink:href="#ArialMT-20"/>
       <use x="189.013671875" xlink:href="#ArialMT-30"/>
       <use x="244.62890625" xlink:href="#ArialMT-39"/>
       <use x="300.244140625" xlink:href="#ArialMT-20"/>
       <use x="328.02734375" xlink:href="#ArialMT-32"/>
       <use x="383.642578125" xlink:href="#ArialMT-30"/>
       <use x="439.2578125" xlink:href="#ArialMT-31"/>
       <use x="494.873046875" xlink:href="#ArialMT-36"/>
      </g>
     </g>
    </g>
    <g id="xtick_2">
     <g id="line2d_4">
      <path clip-path="url(#p613e2666e8)" d="M 113.642363 234.972656 
L 113.642363 11.772656 
" style="fill:none;stroke:#ffffff;stroke-linecap:round;"/>
     </g>
     <g id="line2d_5">
      <g>
       <use style="fill:#262626;stroke:#262626;" x="113.642363062" xlink:href="#m3e7481d5a9" y="234.97265625"/>
      </g>
     </g>
     <g id="line2d_6">
      <g>
       <use style="fill:#262626;stroke:#262626;" x="113.642363062" xlink:href="#m3e7481d5a9" y="11.77265625"/>
      </g>
     </g>
     <g id="text_2">
      <!-- Jan 23 2016 -->
      <defs>
       <path d="M 4.203125 18.890625 
L 12.984375 20.0625 
Q 14.5 12.59375 18.140625 9.296875 
Q 21.78125 6 27 6 
Q 33.203125 6 37.46875 10.296875 
Q 41.75 14.59375 41.75 20.953125 
Q 41.75 27 37.796875 30.921875 
Q 33.84375 34.859375 27.734375 34.859375 
Q 25.25 34.859375 21.53125 33.890625 
L 22.515625 41.609375 
Q 23.390625 41.5 23.921875 41.5 
Q 29.546875 41.5 34.03125 44.421875 
Q 38.53125 47.359375 38.53125 53.46875 
Q 38.53125 58.296875 35.25 61.46875 
Q 31.984375 64.65625 26.8125 64.65625 
Q 21.6875 64.65625 18.265625 61.421875 
Q 14.84375 58.203125 13.875 51.765625 
L 5.078125 53.328125 
Q 6.6875 62.15625 12.390625 67.015625 
Q 18.109375 71.875 26.609375 71.875 
Q 32.46875 71.875 37.390625 69.359375 
Q 42.328125 66.84375 44.9375 62.5 
Q 47.5625 58.15625 47.5625 53.265625 
Q 47.5625 48.640625 45.0625 44.828125 
Q 42.578125 41.015625 37.703125 38.765625 
Q 44.046875 37.3125 47.5625 32.6875 
Q 51.078125 28.078125 51.078125 21.140625 
Q 51.078125 11.765625 44.234375 5.25 
Q 37.40625 -1.265625 26.953125 -1.265625 
Q 17.53125 -1.265625 11.296875 4.34375 
Q 5.078125 9.96875 4.203125 18.890625 
" id="ArialMT-33"/>
      </defs>
      <g style="fill:#262626;" transform="translate(116.227519312 297.01640625)rotate(-90.0)scale(0.1 -0.1)">
       <use xlink:href="#ArialMT-4a"/>
       <use x="50.0" xlink:href="#ArialMT-61"/>
       <use x="105.615234375" xlink:href="#ArialMT-6e"/>
       <use x="161.23046875" xlink:href="#ArialMT-20"/>
       <use x="189.013671875" xlink:href="#ArialMT-32"/>
       <use x="244.62890625" xlink:href="#ArialMT-33"/>
       <use x="300.244140625" xlink:href="#ArialMT-20"/>
       <use x="328.02734375" xlink:href="#ArialMT-32"/>
       <use x="383.642578125" xlink:href="#ArialMT-30"/>
       <use x="439.2578125" xlink:href="#ArialMT-31"/>
       <use x="494.873046875" xlink:href="#ArialMT-36"/>
      </g>
     </g>
    </g>
    <g id="xtick_3">
     <g id="line2d_7">
      <path clip-path="url(#p613e2666e8)" d="M 166.307532 234.972656 
L 166.307532 11.772656 
" style="fill:none;stroke:#ffffff;stroke-linecap:round;"/>
     </g>
     <g id="line2d_8">
      <g>
       <use style="fill:#262626;stroke:#262626;" x="166.307531601" xlink:href="#m3e7481d5a9" y="234.97265625"/>
      </g>
     </g>
     <g id="line2d_9">
      <g>
       <use style="fill:#262626;stroke:#262626;" x="166.307531601" xlink:href="#m3e7481d5a9" y="11.77265625"/>
      </g>
     </g>
     <g id="text_3">
      <!-- Feb 06 2016 -->
      <defs>
       <path d="M 14.703125 0 
L 6.546875 0 
L 6.546875 71.578125 
L 15.328125 71.578125 
L 15.328125 46.046875 
Q 20.90625 53.03125 29.546875 53.03125 
Q 34.328125 53.03125 38.59375 51.09375 
Q 42.875 49.171875 45.625 45.671875 
Q 48.390625 42.1875 49.953125 37.25 
Q 51.515625 32.328125 51.515625 26.703125 
Q 51.515625 13.375 44.921875 6.09375 
Q 38.328125 -1.171875 29.109375 -1.171875 
Q 19.921875 -1.171875 14.703125 6.5 
z
M 14.59375 26.3125 
Q 14.59375 17 17.140625 12.84375 
Q 21.296875 6.0625 28.375 6.0625 
Q 34.125 6.0625 38.328125 11.0625 
Q 42.53125 16.0625 42.53125 25.984375 
Q 42.53125 36.140625 38.5 40.96875 
Q 34.46875 45.796875 28.765625 45.796875 
Q 23 45.796875 18.796875 40.796875 
Q 14.59375 35.796875 14.59375 26.3125 
" id="ArialMT-62"/>
       <path d="M 42.09375 16.703125 
L 51.171875 15.578125 
Q 49.03125 7.625 43.21875 3.21875 
Q 37.40625 -1.171875 28.375 -1.171875 
Q 17 -1.171875 10.328125 5.828125 
Q 3.65625 12.84375 3.65625 25.484375 
Q 3.65625 38.578125 10.390625 45.796875 
Q 17.140625 53.03125 27.875 53.03125 
Q 38.28125 53.03125 44.875 45.953125 
Q 51.46875 38.875 51.46875 26.03125 
Q 51.46875 25.25 51.421875 23.6875 
L 12.75 23.6875 
Q 13.234375 15.140625 17.578125 10.59375 
Q 21.921875 6.0625 28.421875 6.0625 
Q 33.25 6.0625 36.671875 8.59375 
Q 40.09375 11.140625 42.09375 16.703125 
M 13.234375 30.90625 
L 42.1875 30.90625 
Q 41.609375 37.453125 38.875 40.71875 
Q 34.671875 45.796875 27.984375 45.796875 
Q 21.921875 45.796875 17.796875 41.75 
Q 13.671875 37.703125 13.234375 30.90625 
" id="ArialMT-65"/>
       <path d="M 8.203125 0 
L 8.203125 71.578125 
L 56.5 71.578125 
L 56.5 63.140625 
L 17.671875 63.140625 
L 17.671875 40.96875 
L 51.265625 40.96875 
L 51.265625 32.515625 
L 17.671875 32.515625 
L 17.671875 0 
z
" id="ArialMT-46"/>
      </defs>
      <g style="fill:#262626;" transform="translate(168.892687851 298.12421875)rotate(-90.0)scale(0.1 -0.1)">
       <use xlink:href="#ArialMT-46"/>
       <use x="61.083984375" xlink:href="#ArialMT-65"/>
       <use x="116.69921875" xlink:href="#ArialMT-62"/>
       <use x="172.314453125" xlink:href="#ArialMT-20"/>
       <use x="200.09765625" xlink:href="#ArialMT-30"/>
       <use x="255.712890625" xlink:href="#ArialMT-36"/>
       <use x="311.328125" xlink:href="#ArialMT-20"/>
       <use x="339.111328125" xlink:href="#ArialMT-32"/>
       <use x="394.7265625" xlink:href="#ArialMT-30"/>
       <use x="450.341796875" xlink:href="#ArialMT-31"/>
       <use x="505.95703125" xlink:href="#ArialMT-36"/>
      </g>
     </g>
    </g>
    <g id="xtick_4">
     <g id="line2d_10">
      <path clip-path="url(#p613e2666e8)" d="M 218.9727 234.972656 
L 218.9727 11.772656 
" style="fill:none;stroke:#ffffff;stroke-linecap:round;"/>
     </g>
     <g id="line2d_11">
      <g>
       <use style="fill:#262626;stroke:#262626;" x="218.97270014" xlink:href="#m3e7481d5a9" y="234.97265625"/>
      </g>
     </g>
     <g id="line2d_12">
      <g>
       <use style="fill:#262626;stroke:#262626;" x="218.97270014" xlink:href="#m3e7481d5a9" y="11.77265625"/>
      </g>
     </g>
     <g id="text_4">
      <!-- Feb 20 2016 -->
      <g style="fill:#262626;" transform="translate(221.55785639 298.12421875)rotate(-90.0)scale(0.1 -0.1)">
       <use xlink:href="#ArialMT-46"/>
       <use x="61.083984375" xlink:href="#ArialMT-65"/>
       <use x="116.69921875" xlink:href="#ArialMT-62"/>
       <use x="172.314453125" xlink:href="#ArialMT-20"/>
       <use x="200.09765625" xlink:href="#ArialMT-32"/>
       <use x="255.712890625" xlink:href="#ArialMT-30"/>
       <use x="311.328125" xlink:href="#ArialMT-20"/>
       <use x="339.111328125" xlink:href="#ArialMT-32"/>
       <use x="394.7265625" xlink:href="#ArialMT-30"/>
       <use x="450.341796875" xlink:href="#ArialMT-31"/>
       <use x="505.95703125" xlink:href="#ArialMT-36"/>
      </g>
     </g>
    </g>
    <g id="xtick_5">
     <g id="line2d_13">
      <path clip-path="url(#p613e2666e8)" d="M 271.637869 234.972656 
L 271.637869 11.772656 
" style="fill:none;stroke:#ffffff;stroke-linecap:round;"/>
     </g>
     <g id="line2d_14">
      <g>
       <use style="fill:#262626;stroke:#262626;" x="271.63786868" xlink:href="#m3e7481d5a9" y="234.97265625"/>
      </g>
     </g>
     <g id="line2d_15">
      <g>
       <use style="fill:#262626;stroke:#262626;" x="271.63786868" xlink:href="#m3e7481d5a9" y="11.77265625"/>
      </g>
     </g>
     <g id="text_5">
      <!-- Mar 05 2016 -->
      <defs>
       <path d="M 7.421875 0 
L 7.421875 71.578125 
L 21.6875 71.578125 
L 38.625 20.90625 
Q 40.96875 13.8125 42.046875 10.296875 
Q 43.265625 14.203125 45.84375 21.78125 
L 62.984375 71.578125 
L 75.734375 71.578125 
L 75.734375 0 
L 66.609375 0 
L 66.609375 59.90625 
L 45.796875 0 
L 37.25 0 
L 16.546875 60.9375 
L 16.546875 0 
z
" id="ArialMT-4d"/>
       <path d="M 6.5 0 
L 6.5 51.859375 
L 14.40625 51.859375 
L 14.40625 44 
Q 17.4375 49.515625 20 51.265625 
Q 22.5625 53.03125 25.640625 53.03125 
Q 30.078125 53.03125 34.671875 50.203125 
L 31.640625 42.046875 
Q 28.421875 43.953125 25.203125 43.953125 
Q 22.3125 43.953125 20.015625 42.21875 
Q 17.71875 40.484375 16.75 37.40625 
Q 15.28125 32.71875 15.28125 27.15625 
L 15.28125 0 
z
" id="ArialMT-72"/>
       <path d="M 4.15625 18.75 
L 13.375 19.53125 
Q 14.40625 12.796875 18.140625 9.390625 
Q 21.875 6 27.15625 6 
Q 33.5 6 37.890625 10.78125 
Q 42.28125 15.578125 42.28125 23.484375 
Q 42.28125 31 38.0625 35.34375 
Q 33.84375 39.703125 27 39.703125 
Q 22.75 39.703125 19.328125 37.765625 
Q 15.921875 35.84375 13.96875 32.765625 
L 5.71875 33.84375 
L 12.640625 70.609375 
L 48.25 70.609375 
L 48.25 62.203125 
L 19.671875 62.203125 
L 15.828125 42.96875 
Q 22.265625 47.46875 29.34375 47.46875 
Q 38.71875 47.46875 45.15625 40.96875 
Q 51.609375 34.46875 51.609375 24.265625 
Q 51.609375 14.546875 45.953125 7.46875 
Q 39.0625 -1.21875 27.15625 -1.21875 
Q 17.390625 -1.21875 11.203125 4.25 
Q 5.03125 9.71875 4.15625 18.75 
" id="ArialMT-35"/>
      </defs>
      <g style="fill:#262626;" transform="translate(274.22302493 298.11484375)rotate(-90.0)scale(0.1 -0.1)">
       <use xlink:href="#ArialMT-4d"/>
       <use x="83.30078125" xlink:href="#ArialMT-61"/>
       <use x="138.916015625" xlink:href="#ArialMT-72"/>
       <use x="172.216796875" xlink:href="#ArialMT-20"/>
       <use x="200.0" xlink:href="#ArialMT-30"/>
       <use x="255.615234375" xlink:href="#ArialMT-35"/>
       <use x="311.23046875" xlink:href="#ArialMT-20"/>
       <use x="339.013671875" xlink:href="#ArialMT-32"/>
       <use x="394.62890625" xlink:href="#ArialMT-30"/>
       <use x="450.244140625" xlink:href="#ArialMT-31"/>
       <use x="505.859375" xlink:href="#ArialMT-36"/>
      </g>
     </g>
    </g>
    <g id="xtick_6">
     <g id="line2d_16">
      <path clip-path="url(#p613e2666e8)" d="M 324.303037 234.972656 
L 324.303037 11.772656 
" style="fill:none;stroke:#ffffff;stroke-linecap:round;"/>
     </g>
     <g id="line2d_17">
      <g>
       <use style="fill:#262626;stroke:#262626;" x="324.303037219" xlink:href="#m3e7481d5a9" y="234.97265625"/>
      </g>
     </g>
     <g id="line2d_18">
      <g>
       <use style="fill:#262626;stroke:#262626;" x="324.303037219" xlink:href="#m3e7481d5a9" y="11.77265625"/>
      </g>
     </g>
     <g id="text_6">
      <!-- Mar 19 2016 -->
      <g style="fill:#262626;" transform="translate(326.888193469 298.11484375)rotate(-90.0)scale(0.1 -0.1)">
       <use xlink:href="#ArialMT-4d"/>
       <use x="83.30078125" xlink:href="#ArialMT-61"/>
       <use x="138.916015625" xlink:href="#ArialMT-72"/>
       <use x="172.216796875" xlink:href="#ArialMT-20"/>
       <use x="200.0" xlink:href="#ArialMT-31"/>
       <use x="255.615234375" xlink:href="#ArialMT-39"/>
       <use x="311.23046875" xlink:href="#ArialMT-20"/>
       <use x="339.013671875" xlink:href="#ArialMT-32"/>
       <use x="394.62890625" xlink:href="#ArialMT-30"/>
       <use x="450.244140625" xlink:href="#ArialMT-31"/>
       <use x="505.859375" xlink:href="#ArialMT-36"/>
      </g>
     </g>
    </g>
   </g>
   <g id="matplotlib.axis_2">
    <g id="ytick_1">
     <g id="line2d_19">
      <path clip-path="url(#p613e2666e8)" d="M 30.882813 234.972656 
L 365.682813 234.972656 
" style="fill:none;stroke:#ffffff;stroke-linecap:round;"/>
     </g>
     <g id="line2d_20">
      <g>
       <use style="fill:#262626;stroke:#262626;" x="30.8828125" xlink:href="#m3e7481d5a9" y="234.97265625"/>
      </g>
     </g>
     <g id="line2d_21">
      <g>
       <use style="fill:#262626;stroke:#262626;" x="365.6828125" xlink:href="#m3e7481d5a9" y="234.97265625"/>
      </g>
     </g>
     <g id="text_7">
      <!-- 100 -->
      <g style="fill:#262626;" transform="translate(7.2 237.5578125)scale(0.1 -0.1)">
       <use xlink:href="#ArialMT-31"/>
       <use x="55.615234375" xlink:href="#ArialMT-30"/>
       <use x="111.23046875" xlink:href="#ArialMT-30"/>
      </g>
     </g>
    </g>
    <g id="ytick_2">
     <g id="line2d_22">
      <path clip-path="url(#p613e2666e8)" d="M 30.882813 190.332656 
L 365.682813 190.332656 
" style="fill:none;stroke:#ffffff;stroke-linecap:round;"/>
     </g>
     <g id="line2d_23">
      <g>
       <use style="fill:#262626;stroke:#262626;" x="30.8828125" xlink:href="#m3e7481d5a9" y="190.33265625"/>
      </g>
     </g>
     <g id="line2d_24">
      <g>
       <use style="fill:#262626;stroke:#262626;" x="365.6828125" xlink:href="#m3e7481d5a9" y="190.33265625"/>
      </g>
     </g>
     <g id="text_8">
      <!-- 150 -->
      <g style="fill:#262626;" transform="translate(7.2 192.9178125)scale(0.1 -0.1)">
       <use xlink:href="#ArialMT-31"/>
       <use x="55.615234375" xlink:href="#ArialMT-35"/>
       <use x="111.23046875" xlink:href="#ArialMT-30"/>
      </g>
     </g>
    </g>
    <g id="ytick_3">
     <g id="line2d_25">
      <path clip-path="url(#p613e2666e8)" d="M 30.882813 145.692656 
L 365.682813 145.692656 
" style="fill:none;stroke:#ffffff;stroke-linecap:round;"/>
     </g>
     <g id="line2d_26">
      <g>
       <use style="fill:#262626;stroke:#262626;" x="30.8828125" xlink:href="#m3e7481d5a9" y="145.69265625"/>
      </g>
     </g>
     <g id="line2d_27">
      <g>
       <use style="fill:#262626;stroke:#262626;" x="365.6828125" xlink:href="#m3e7481d5a9" y="145.69265625"/>
      </g>
     </g>
     <g id="text_9">
      <!-- 200 -->
      <g style="fill:#262626;" transform="translate(7.2 148.2778125)scale(0.1 -0.1)">
       <use xlink:href="#ArialMT-32"/>
       <use x="55.615234375" xlink:href="#ArialMT-30"/>
       <use x="111.23046875" xlink:href="#ArialMT-30"/>
      </g>
     </g>
    </g>
    <g id="ytick_4">
     <g id="line2d_28">
      <path clip-path="url(#p613e2666e8)" d="M 30.882813 101.052656 
L 365.682813 101.052656 
" style="fill:none;stroke:#ffffff;stroke-linecap:round;"/>
     </g>
     <g id="line2d_29">
      <g>
       <use style="fill:#262626;stroke:#262626;" x="30.8828125" xlink:href="#m3e7481d5a9" y="101.05265625"/>
      </g>
     </g>
     <g id="line2d_30">
      <g>
       <use style="fill:#262626;stroke:#262626;" x="365.6828125" xlink:href="#m3e7481d5a9" y="101.05265625"/>
      </g>
     </g>
     <g id="text_10">
      <!-- 250 -->
      <g style="fill:#262626;" transform="translate(7.2 103.6378125)scale(0.1 -0.1)">
       <use xlink:href="#ArialMT-32"/>
       <use x="55.615234375" xlink:href="#ArialMT-35"/>
       <use x="111.23046875" xlink:href="#ArialMT-30"/>
      </g>
     </g>
    </g>
    <g id="ytick_5">
     <g id="line2d_31">
      <path clip-path="url(#p613e2666e8)" d="M 30.882813 56.412656 
L 365.682813 56.412656 
" style="fill:none;stroke:#ffffff;stroke-linecap:round;"/>
     </g>
     <g id="line2d_32">
      <g>
       <use style="fill:#262626;stroke:#262626;" x="30.8828125" xlink:href="#m3e7481d5a9" y="56.41265625"/>
      </g>
     </g>
     <g id="line2d_33">
      <g>
       <use style="fill:#262626;stroke:#262626;" x="365.6828125" xlink:href="#m3e7481d5a9" y="56.41265625"/>
      </g>
     </g>
     <g id="text_11">
      <!-- 300 -->
      <g style="fill:#262626;" transform="translate(7.2 58.9978125)scale(0.1 -0.1)">
       <use xlink:href="#ArialMT-33"/>
       <use x="55.615234375" xlink:href="#ArialMT-30"/>
       <use x="111.23046875" xlink:href="#ArialMT-30"/>
      </g>
     </g>
    </g>
    <g id="ytick_6">
     <g id="line2d_34">
      <path clip-path="url(#p613e2666e8)" d="M 30.882813 11.772656 
L 365.682813 11.772656 
" style="fill:none;stroke:#ffffff;stroke-linecap:round;"/>
     </g>
     <g id="line2d_35">
      <g>
       <use style="fill:#262626;stroke:#262626;" x="30.8828125" xlink:href="#m3e7481d5a9" y="11.77265625"/>
      </g>
     </g>
     <g id="line2d_36">
      <g>
       <use style="fill:#262626;stroke:#262626;" x="365.6828125" xlink:href="#m3e7481d5a9" y="11.77265625"/>
      </g>
     </g>
     <g id="text_12">
      <!-- 350 -->
      <g style="fill:#262626;" transform="translate(7.2 14.3578125)scale(0.1 -0.1)">
       <use xlink:href="#ArialMT-33"/>
       <use x="55.615234375" xlink:href="#ArialMT-35"/>
       <use x="111.23046875" xlink:href="#ArialMT-30"/>
      </g>
     </g>
    </g>
   </g>
   <g id="line2d_37">
    <path clip-path="url(#p613e2666e8)" d="M 30.882812 194.350256 
L 34.64461 193.457456 
L 38.406408 193.457456 
L 42.168206 193.011056 
L 45.930004 193.011056 
L 49.691801 192.564656 
L 53.453599 191.671856 
L 57.215397 190.779056 
L 60.977195 185.868656 
L 64.738992 180.511856 
L 68.50079 176.494256 
L 72.262588 171.137456 
L 76.024386 166.673456 
L 79.786183 156.406256 
L 83.547981 149.263856 
L 87.309779 142.567856 
L 91.071577 133.639856 
L 94.833374 126.943856 
L 98.595172 123.819056 
L 102.35697 122.033456 
L 106.118768 120.694256 
L 109.880565 120.694256 
L 113.642363 119.355056 
L 117.404161 118.908656 
L 121.165959 119.355056 
L 124.927756 119.801456 
L 128.689554 118.462256 
L 132.451352 116.676656 
L 136.21315 115.783856 
L 139.974947 112.659056 
L 143.736745 106.855856 
L 147.498543 100.606256 
L 151.260341 93.910256 
L 155.022138 89.446256 
L 158.783936 87.214256 
L 162.545734 82.303856 
L 166.307532 79.179056 
L 170.069329 77.393456 
L 173.831127 75.607856 
L 177.592925 73.822256 
L 181.354723 71.590256 
L 185.11652 69.358256 
L 188.878318 68.019056 
L 192.640116 67.126256 
L 196.401914 65.340656 
L 200.163711 63.108656 
L 203.925509 60.876656 
L 207.687307 58.198256 
L 211.449105 55.519856 
L 215.210902 51.948656 
L 218.9727 49.270256 
L 222.734498 47.038256 
L 226.496296 43.913456 
L 230.258093 39.003056 
L 234.019891 36.771056 
L 237.781689 33.646256 
L 241.543487 31.414256 
L 245.305284 29.182256 
L 249.067082 26.503856 
L 252.82888 23.379056 
L 256.590678 23.825456 
L 260.352475 20.254256 
L 264.114273 18.915056 
L 267.876071 17.575856 
L 271.637869 16.236656 
L 275.399666 15.343856 
L 279.161464 14.451056 
L 282.923262 14.451056 
L 286.68506 14.451056 
L 290.446857 14.897456 
L 294.208655 15.790256 
L 297.970453 15.790256 
L 301.732251 16.683056 
L 305.494048 17.129456 
L 309.255846 17.129456 
L 313.017644 17.575856 
L 316.779442 18.468656 
L 320.541239 18.468656 
L 324.303037 16.683056 
L 328.064835 16.683056 
L 331.826633 17.575856 
L 335.58843 18.915056 
L 339.350228 18.915056 
L 343.112026 18.022256 
L 346.873824 14.897456 
L 350.635621 14.451056 
L 354.397419 14.451056 
L 358.159217 14.451056 
L 361.921015 14.451056 
L 365.682813 13.111856 
" style="fill:none;stroke:#4c72b0;stroke-linecap:round;stroke-width:1.75;"/>
   </g>
   <g id="patch_3">
    <path d="M 30.882812 11.772656 
L 365.682813 11.772656 
" style="fill:none;"/>
   </g>
   <g id="patch_4">
    <path d="M 365.682813 234.972656 
L 365.682813 11.772656 
" style="fill:none;"/>
   </g>
   <g id="patch_5">
    <path d="M 30.882812 234.972656 
L 365.682813 234.972656 
" style="fill:none;"/>
   </g>
   <g id="patch_6">
    <path d="M 30.882813 234.972656 
L 30.882813 11.772656 
" style="fill:none;"/>
   </g>
  </g>
 </g>
 <defs>
  <clipPath id="p613e2666e8">
   <rect height="223.2" width="334.8" x="30.8828125" y="11.77265625"/>
  </clipPath>
 </defs>
</svg>
