<?xml version="1.0" encoding="utf-8" standalone="no"?>
<!DOCTYPE svg PUBLIC "-//W3C//DTD SVG 1.1//EN"
  "http://www.w3.org/Graphics/SVG/1.1/DTD/svg11.dtd">
<!-- Created with matplotlib (http://matplotlib.org/) -->
<svg height="293pt" version="1.1" viewBox="0 0 372 293" width="372pt" xmlns="http://www.w3.org/2000/svg" xmlns:xlink="http://www.w3.org/1999/xlink">
 <defs>
  <style type="text/css">
*{stroke-linecap:butt;stroke-linejoin:round;stroke-miterlimit:100000;}
  </style>
 </defs>
 <g id="figure_1">
  <g id="patch_1">
   <path d="M 0 293.085156 
L 372.882812 293.085156 
L 372.882812 0 
L 0 0 
L 0 293.085156 
z
" style="fill:none;"/>
  </g>
  <g id="axes_1">
   <g id="patch_2">
    <path d="M 30.882813 234.972656 
L 365.682813 234.972656 
L 365.682813 11.772656 
L 30.882813 11.772656 
z
" style="fill:#eaeaf2;"/>
   </g>
   <g id="matplotlib.axis_1">
    <g id="xtick_1">
     <g id="line2d_1">
      <path clip-path="url(#pa7c396f895)" d="M 30.882812 234.972656 
L 30.882812 11.772656 
" style="fill:none;stroke:#ffffff;stroke-linecap:round;"/>
     </g>
     <g id="line2d_2">
      <defs>
       <path d="M 0 0 
L 0 0 
" id="m758acee16a" style="stroke:#262626;"/>
      </defs>
      <g>
       <use style="fill:#262626;stroke:#262626;" x="30.8828124999" xlink:href="#m758acee16a" y="234.97265625"/>
      </g>
     </g>
     <g id="line2d_3">
      <g>
       <use style="fill:#262626;stroke:#262626;" x="30.8828124999" xlink:href="#m758acee16a" y="11.77265625"/>
      </g>
     </g>
     <g id="text_1">
      <!-- Jan 2015 -->
      <defs>
       <path d="M 40.4375 6.390625 
Q 35.546875 2.25 31.03125 0.53125 
Q 26.515625 -1.171875 21.34375 -1.171875 
Q 12.796875 -1.171875 8.203125 3 
Q 3.609375 7.171875 3.609375 13.671875 
Q 3.609375 17.484375 5.34375 20.625 
Q 7.078125 23.78125 9.890625 25.6875 
Q 12.703125 27.59375 16.21875 28.5625 
Q 18.796875 29.25 24.03125 29.890625 
Q 34.671875 31.15625 39.703125 32.90625 
Q 39.75 34.71875 39.75 35.203125 
Q 39.75 40.578125 37.25 42.78125 
Q 33.890625 45.75 27.25 45.75 
Q 21.046875 45.75 18.09375 43.578125 
Q 15.140625 41.40625 13.71875 35.890625 
L 5.125 37.0625 
Q 6.296875 42.578125 8.984375 45.96875 
Q 11.671875 49.359375 16.75 51.1875 
Q 21.828125 53.03125 28.515625 53.03125 
Q 35.15625 53.03125 39.296875 51.46875 
Q 43.453125 49.90625 45.40625 47.53125 
Q 47.359375 45.171875 48.140625 41.546875 
Q 48.578125 39.3125 48.578125 33.453125 
L 48.578125 21.734375 
Q 48.578125 9.46875 49.140625 6.21875 
Q 49.703125 2.984375 51.375 0 
L 42.1875 0 
Q 40.828125 2.734375 40.4375 6.390625 
M 39.703125 26.03125 
Q 34.90625 24.078125 25.34375 22.703125 
Q 19.921875 21.921875 17.671875 20.9375 
Q 15.4375 19.96875 14.203125 18.09375 
Q 12.984375 16.21875 12.984375 13.921875 
Q 12.984375 10.40625 15.640625 8.0625 
Q 18.3125 5.71875 23.4375 5.71875 
Q 28.515625 5.71875 32.46875 7.9375 
Q 36.421875 10.15625 38.28125 14.015625 
Q 39.703125 17 39.703125 22.796875 
z
" id="ArialMT-61"/>
       <path d="M 4.15625 35.296875 
Q 4.15625 48 6.765625 55.734375 
Q 9.375 63.484375 14.515625 67.671875 
Q 19.671875 71.875 27.484375 71.875 
Q 33.25 71.875 37.59375 69.546875 
Q 41.9375 67.234375 44.765625 62.859375 
Q 47.609375 58.5 49.21875 52.21875 
Q 50.828125 45.953125 50.828125 35.296875 
Q 50.828125 22.703125 48.234375 14.96875 
Q 45.65625 7.234375 40.5 3 
Q 35.359375 -1.21875 27.484375 -1.21875 
Q 17.140625 -1.21875 11.234375 6.203125 
Q 4.15625 15.140625 4.15625 35.296875 
M 13.1875 35.296875 
Q 13.1875 17.671875 17.3125 11.828125 
Q 21.4375 6 27.484375 6 
Q 33.546875 6 37.671875 11.859375 
Q 41.796875 17.71875 41.796875 35.296875 
Q 41.796875 52.984375 37.671875 58.78125 
Q 33.546875 64.59375 27.390625 64.59375 
Q 21.34375 64.59375 17.71875 59.46875 
Q 13.1875 52.9375 13.1875 35.296875 
" id="ArialMT-30"/>
       <path d="M 6.59375 0 
L 6.59375 51.859375 
L 14.5 51.859375 
L 14.5 44.484375 
Q 20.21875 53.03125 31 53.03125 
Q 35.6875 53.03125 39.625 51.34375 
Q 43.5625 49.65625 45.515625 46.921875 
Q 47.46875 44.1875 48.25 40.4375 
Q 48.734375 37.984375 48.734375 31.890625 
L 48.734375 0 
L 39.9375 0 
L 39.9375 31.546875 
Q 39.9375 36.921875 38.90625 39.578125 
Q 37.890625 42.234375 35.28125 43.8125 
Q 32.671875 45.40625 29.15625 45.40625 
Q 23.53125 45.40625 19.453125 41.84375 
Q 15.375 38.28125 15.375 28.328125 
L 15.375 0 
z
" id="ArialMT-6e"/>
       <path d="M 2.875 20.3125 
L 11.421875 21.484375 
Q 11.765625 13.28125 14.5 10.25 
Q 17.234375 7.234375 22.078125 7.234375 
Q 25.640625 7.234375 28.21875 8.859375 
Q 30.8125 10.5 31.78125 13.296875 
Q 32.765625 16.109375 32.765625 22.265625 
L 32.765625 71.578125 
L 42.234375 71.578125 
L 42.234375 22.796875 
Q 42.234375 13.8125 40.0625 8.875 
Q 37.890625 3.953125 33.171875 1.359375 
Q 28.46875 -1.21875 22.125 -1.21875 
Q 12.703125 -1.21875 7.6875 4.203125 
Q 2.6875 9.625 2.875 20.3125 
" id="ArialMT-4a"/>
       <path d="M 37.25 0 
L 28.46875 0 
L 28.46875 56 
Q 25.296875 52.984375 20.140625 49.953125 
Q 14.984375 46.921875 10.890625 45.40625 
L 10.890625 53.90625 
Q 18.265625 57.375 23.78125 62.296875 
Q 29.296875 67.234375 31.59375 71.875 
L 37.25 71.875 
z
" id="ArialMT-31"/>
       <path d="M 50.34375 8.453125 
L 50.34375 0 
L 3.03125 0 
Q 2.9375 3.171875 4.046875 6.109375 
Q 5.859375 10.9375 9.828125 15.625 
Q 13.8125 20.3125 21.34375 26.46875 
Q 33.015625 36.03125 37.109375 41.625 
Q 41.21875 47.21875 41.21875 52.203125 
Q 41.21875 57.421875 37.46875 61 
Q 33.734375 64.59375 27.734375 64.59375 
Q 21.390625 64.59375 17.578125 60.78125 
Q 13.765625 56.984375 13.71875 50.25 
L 4.6875 51.171875 
Q 5.609375 61.28125 11.65625 66.578125 
Q 17.71875 71.875 27.9375 71.875 
Q 38.234375 71.875 44.234375 66.15625 
Q 50.25 60.453125 50.25 52 
Q 50.25 47.703125 48.484375 43.546875 
Q 46.734375 39.40625 42.65625 34.8125 
Q 38.578125 30.21875 29.109375 22.21875 
Q 21.1875 15.578125 18.9375 13.203125 
Q 16.703125 10.84375 15.234375 8.453125 
z
" id="ArialMT-32"/>
       <path d="M 4.15625 18.75 
L 13.375 19.53125 
Q 14.40625 12.796875 18.140625 9.390625 
Q 21.875 6 27.15625 6 
Q 33.5 6 37.890625 10.78125 
Q 42.28125 15.578125 42.28125 23.484375 
Q 42.28125 31 38.0625 35.34375 
Q 33.84375 39.703125 27 39.703125 
Q 22.75 39.703125 19.328125 37.765625 
Q 15.921875 35.84375 13.96875 32.765625 
L 5.71875 33.84375 
L 12.640625 70.609375 
L 48.25 70.609375 
L 48.25 62.203125 
L 19.671875 62.203125 
L 15.828125 42.96875 
Q 22.265625 47.46875 29.34375 47.46875 
Q 38.71875 47.46875 45.15625 40.96875 
Q 51.609375 34.46875 51.609375 24.265625 
Q 51.609375 14.546875 45.953125 7.46875 
Q 39.0625 -1.21875 27.15625 -1.21875 
Q 17.390625 -1.21875 11.203125 4.25 
Q 5.03125 9.71875 4.15625 18.75 
" id="ArialMT-35"/>
       <path id="ArialMT-20"/>
      </defs>
      <g style="fill:#262626;" transform="translate(33.4679687499 283.11640625)rotate(-90.0)scale(0.1 -0.1)">
       <use xlink:href="#ArialMT-4a"/>
       <use x="50.0" xlink:href="#ArialMT-61"/>
       <use x="105.615234375" xlink:href="#ArialMT-6e"/>
       <use x="161.23046875" xlink:href="#ArialMT-20"/>
       <use x="189.013671875" xlink:href="#ArialMT-32"/>
       <use x="244.62890625" xlink:href="#ArialMT-30"/>
       <use x="300.244140625" xlink:href="#ArialMT-31"/>
       <use x="355.859375" xlink:href="#ArialMT-35"/>
      </g>
     </g>
    </g>
    <g id="xtick_2">
     <g id="line2d_4">
      <path clip-path="url(#pa7c396f895)" d="M 59.395999 234.972656 
L 59.395999 11.772656 
" style="fill:none;stroke:#ffffff;stroke-linecap:round;"/>
     </g>
     <g id="line2d_5">
      <g>
       <use style="fill:#262626;stroke:#262626;" x="59.3959993131" xlink:href="#m758acee16a" y="234.97265625"/>
      </g>
     </g>
     <g id="line2d_6">
      <g>
       <use style="fill:#262626;stroke:#262626;" x="59.3959993131" xlink:href="#m758acee16a" y="11.77265625"/>
      </g>
     </g>
     <g id="text_2">
      <!-- Feb 2015 -->
      <defs>
       <path d="M 14.703125 0 
L 6.546875 0 
L 6.546875 71.578125 
L 15.328125 71.578125 
L 15.328125 46.046875 
Q 20.90625 53.03125 29.546875 53.03125 
Q 34.328125 53.03125 38.59375 51.09375 
Q 42.875 49.171875 45.625 45.671875 
Q 48.390625 42.1875 49.953125 37.25 
Q 51.515625 32.328125 51.515625 26.703125 
Q 51.515625 13.375 44.921875 6.09375 
Q 38.328125 -1.171875 29.109375 -1.171875 
Q 19.921875 -1.171875 14.703125 6.5 
z
M 14.59375 26.3125 
Q 14.59375 17 17.140625 12.84375 
Q 21.296875 6.0625 28.375 6.0625 
Q 34.125 6.0625 38.328125 11.0625 
Q 42.53125 16.0625 42.53125 25.984375 
Q 42.53125 36.140625 38.5 40.96875 
Q 34.46875 45.796875 28.765625 45.796875 
Q 23 45.796875 18.796875 40.796875 
Q 14.59375 35.796875 14.59375 26.3125 
" id="ArialMT-62"/>
       <path d="M 42.09375 16.703125 
L 51.171875 15.578125 
Q 49.03125 7.625 43.21875 3.21875 
Q 37.40625 -1.171875 28.375 -1.171875 
Q 17 -1.171875 10.328125 5.828125 
Q 3.65625 12.84375 3.65625 25.484375 
Q 3.65625 38.578125 10.390625 45.796875 
Q 17.140625 53.03125 27.875 53.03125 
Q 38.28125 53.03125 44.875 45.953125 
Q 51.46875 38.875 51.46875 26.03125 
Q 51.46875 25.25 51.421875 23.6875 
L 12.75 23.6875 
Q 13.234375 15.140625 17.578125 10.59375 
Q 21.921875 6.0625 28.421875 6.0625 
Q 33.25 6.0625 36.671875 8.59375 
Q 40.09375 11.140625 42.09375 16.703125 
M 13.234375 30.90625 
L 42.1875 30.90625 
Q 41.609375 37.453125 38.875 40.71875 
Q 34.671875 45.796875 27.984375 45.796875 
Q 21.921875 45.796875 17.796875 41.75 
Q 13.671875 37.703125 13.234375 30.90625 
" id="ArialMT-65"/>
       <path d="M 8.203125 0 
L 8.203125 71.578125 
L 56.5 71.578125 
L 56.5 63.140625 
L 17.671875 63.140625 
L 17.671875 40.96875 
L 51.265625 40.96875 
L 51.265625 32.515625 
L 17.671875 32.515625 
L 17.671875 0 
z
" id="ArialMT-46"/>
      </defs>
      <g style="fill:#262626;" transform="translate(61.9811555631 284.22421875)rotate(-90.0)scale(0.1 -0.1)">
       <use xlink:href="#ArialMT-46"/>
       <use x="61.083984375" xlink:href="#ArialMT-65"/>
       <use x="116.69921875" xlink:href="#ArialMT-62"/>
       <use x="172.314453125" xlink:href="#ArialMT-20"/>
       <use x="200.09765625" xlink:href="#ArialMT-32"/>
       <use x="255.712890625" xlink:href="#ArialMT-30"/>
       <use x="311.328125" xlink:href="#ArialMT-31"/>
       <use x="366.943359375" xlink:href="#ArialMT-35"/>
      </g>
     </g>
    </g>
    <g id="xtick_3">
     <g id="line2d_7">
      <path clip-path="url(#pa7c396f895)" d="M 85.149845 234.972656 
L 85.149845 11.772656 
" style="fill:none;stroke:#ffffff;stroke-linecap:round;"/>
     </g>
     <g id="line2d_8">
      <g>
       <use style="fill:#262626;stroke:#262626;" x="85.1498454669" xlink:href="#m758acee16a" y="234.97265625"/>
      </g>
     </g>
     <g id="line2d_9">
      <g>
       <use style="fill:#262626;stroke:#262626;" x="85.1498454669" xlink:href="#m758acee16a" y="11.77265625"/>
      </g>
     </g>
     <g id="text_3">
      <!-- Mar 2015 -->
      <defs>
       <path d="M 7.421875 0 
L 7.421875 71.578125 
L 21.6875 71.578125 
L 38.625 20.90625 
Q 40.96875 13.8125 42.046875 10.296875 
Q 43.265625 14.203125 45.84375 21.78125 
L 62.984375 71.578125 
L 75.734375 71.578125 
L 75.734375 0 
L 66.609375 0 
L 66.609375 59.90625 
L 45.796875 0 
L 37.25 0 
L 16.546875 60.9375 
L 16.546875 0 
z
" id="ArialMT-4d"/>
       <path d="M 6.5 0 
L 6.5 51.859375 
L 14.40625 51.859375 
L 14.40625 44 
Q 17.4375 49.515625 20 51.265625 
Q 22.5625 53.03125 25.640625 53.03125 
Q 30.078125 53.03125 34.671875 50.203125 
L 31.640625 42.046875 
Q 28.421875 43.953125 25.203125 43.953125 
Q 22.3125 43.953125 20.015625 42.21875 
Q 17.71875 40.484375 16.75 37.40625 
Q 15.28125 32.71875 15.28125 27.15625 
L 15.28125 0 
z
" id="ArialMT-72"/>
      </defs>
      <g style="fill:#262626;" transform="translate(87.7350017169 284.21484375)rotate(-90.0)scale(0.1 -0.1)">
       <use xlink:href="#ArialMT-4d"/>
       <use x="83.30078125" xlink:href="#ArialMT-61"/>
       <use x="138.916015625" xlink:href="#ArialMT-72"/>
       <use x="172.216796875" xlink:href="#ArialMT-20"/>
       <use x="200.0" xlink:href="#ArialMT-32"/>
       <use x="255.615234375" xlink:href="#ArialMT-30"/>
       <use x="311.23046875" xlink:href="#ArialMT-31"/>
       <use x="366.845703125" xlink:href="#ArialMT-35"/>
      </g>
     </g>
    </g>
    <g id="xtick_4">
     <g id="line2d_10">
      <path clip-path="url(#pa7c396f895)" d="M 113.663032 234.972656 
L 113.663032 11.772656 
" style="fill:none;stroke:#ffffff;stroke-linecap:round;"/>
     </g>
     <g id="line2d_11">
      <g>
       <use style="fill:#262626;stroke:#262626;" x="113.66303228" xlink:href="#m758acee16a" y="234.97265625"/>
      </g>
     </g>
     <g id="line2d_12">
      <g>
       <use style="fill:#262626;stroke:#262626;" x="113.66303228" xlink:href="#m758acee16a" y="11.77265625"/>
      </g>
     </g>
     <g id="text_4">
      <!-- Apr 2015 -->
      <defs>
       <path d="M -0.140625 0 
L 27.34375 71.578125 
L 37.546875 71.578125 
L 66.84375 0 
L 56.0625 0 
L 47.703125 21.6875 
L 17.78125 21.6875 
L 9.90625 0 
z
M 20.515625 29.390625 
L 44.78125 29.390625 
L 37.3125 49.21875 
Q 33.890625 58.25 32.234375 64.0625 
Q 30.859375 57.171875 28.375 50.390625 
z
" id="ArialMT-41"/>
       <path d="M 6.59375 -19.875 
L 6.59375 51.859375 
L 14.59375 51.859375 
L 14.59375 45.125 
Q 17.4375 49.078125 21 51.046875 
Q 24.5625 53.03125 29.640625 53.03125 
Q 36.28125 53.03125 41.359375 49.609375 
Q 46.4375 46.1875 49.015625 39.953125 
Q 51.609375 33.734375 51.609375 26.3125 
Q 51.609375 18.359375 48.75 11.984375 
Q 45.90625 5.609375 40.453125 2.21875 
Q 35.015625 -1.171875 29 -1.171875 
Q 24.609375 -1.171875 21.109375 0.6875 
Q 17.625 2.546875 15.375 5.375 
L 15.375 -19.875 
z
M 14.546875 25.640625 
Q 14.546875 15.625 18.59375 10.84375 
Q 22.65625 6.0625 28.421875 6.0625 
Q 34.28125 6.0625 38.453125 11.015625 
Q 42.625 15.96875 42.625 26.375 
Q 42.625 36.28125 38.546875 41.203125 
Q 34.46875 46.140625 28.8125 46.140625 
Q 23.1875 46.140625 18.859375 40.890625 
Q 14.546875 35.640625 14.546875 25.640625 
" id="ArialMT-70"/>
      </defs>
      <g style="fill:#262626;" transform="translate(116.26303228 282.55546875)rotate(-90.0)scale(0.1 -0.1)">
       <use xlink:href="#ArialMT-41"/>
       <use x="66.69921875" xlink:href="#ArialMT-70"/>
       <use x="122.314453125" xlink:href="#ArialMT-72"/>
       <use x="155.615234375" xlink:href="#ArialMT-20"/>
       <use x="183.3984375" xlink:href="#ArialMT-32"/>
       <use x="239.013671875" xlink:href="#ArialMT-30"/>
       <use x="294.62890625" xlink:href="#ArialMT-31"/>
       <use x="350.244140625" xlink:href="#ArialMT-35"/>
      </g>
     </g>
    </g>
    <g id="xtick_5">
     <g id="line2d_13">
      <path clip-path="url(#pa7c396f895)" d="M 141.256439 234.972656 
L 141.256439 11.772656 
" style="fill:none;stroke:#ffffff;stroke-linecap:round;"/>
     </g>
     <g id="line2d_14">
      <g>
       <use style="fill:#262626;stroke:#262626;" x="141.256438874" xlink:href="#m758acee16a" y="234.97265625"/>
      </g>
     </g>
     <g id="line2d_15">
      <g>
       <use style="fill:#262626;stroke:#262626;" x="141.256438874" xlink:href="#m758acee16a" y="11.77265625"/>
      </g>
     </g>
     <g id="text_5">
      <!-- May 2015 -->
      <defs>
       <path d="M 6.203125 -19.96875 
L 5.21875 -11.71875 
Q 8.109375 -12.5 10.25 -12.5 
Q 13.1875 -12.5 14.9375 -11.515625 
Q 16.703125 -10.546875 17.828125 -8.796875 
Q 18.65625 -7.46875 20.515625 -2.25 
Q 20.75 -1.515625 21.296875 -0.09375 
L 1.609375 51.859375 
L 11.078125 51.859375 
L 21.875 21.828125 
Q 23.96875 16.109375 25.640625 9.8125 
Q 27.15625 15.875 29.25 21.625 
L 40.328125 51.859375 
L 49.125 51.859375 
L 29.390625 -0.875 
Q 26.21875 -9.421875 24.46875 -12.640625 
Q 22.125 -17 19.09375 -19.015625 
Q 16.0625 -21.046875 11.859375 -21.046875 
Q 9.328125 -21.046875 6.203125 -19.96875 
" id="ArialMT-79"/>
      </defs>
      <g style="fill:#262626;" transform="translate(143.797845124 285.88515625)rotate(-90.0)scale(0.1 -0.1)">
       <use xlink:href="#ArialMT-4d"/>
       <use x="83.30078125" xlink:href="#ArialMT-61"/>
       <use x="138.916015625" xlink:href="#ArialMT-79"/>
       <use x="188.916015625" xlink:href="#ArialMT-20"/>
       <use x="216.69921875" xlink:href="#ArialMT-32"/>
       <use x="272.314453125" xlink:href="#ArialMT-30"/>
       <use x="327.9296875" xlink:href="#ArialMT-31"/>
       <use x="383.544921875" xlink:href="#ArialMT-35"/>
      </g>
     </g>
    </g>
    <g id="xtick_6">
     <g id="line2d_16">
      <path clip-path="url(#pa7c396f895)" d="M 169.769626 234.972656 
L 169.769626 11.772656 
" style="fill:none;stroke:#ffffff;stroke-linecap:round;"/>
     </g>
     <g id="line2d_17">
      <g>
       <use style="fill:#262626;stroke:#262626;" x="169.769625687" xlink:href="#m758acee16a" y="234.97265625"/>
      </g>
     </g>
     <g id="line2d_18">
      <g>
       <use style="fill:#262626;stroke:#262626;" x="169.769625687" xlink:href="#m758acee16a" y="11.77265625"/>
      </g>
     </g>
     <g id="text_6">
      <!-- Jun 2015 -->
      <defs>
       <path d="M 40.578125 0 
L 40.578125 7.625 
Q 34.515625 -1.171875 24.125 -1.171875 
Q 19.53125 -1.171875 15.546875 0.578125 
Q 11.578125 2.34375 9.640625 5 
Q 7.71875 7.671875 6.9375 11.53125 
Q 6.390625 14.109375 6.390625 19.734375 
L 6.390625 51.859375 
L 15.1875 51.859375 
L 15.1875 23.09375 
Q 15.1875 16.21875 15.71875 13.8125 
Q 16.546875 10.359375 19.234375 8.375 
Q 21.921875 6.390625 25.875 6.390625 
Q 29.828125 6.390625 33.296875 8.421875 
Q 36.765625 10.453125 38.203125 13.9375 
Q 39.65625 17.4375 39.65625 24.078125 
L 39.65625 51.859375 
L 48.4375 51.859375 
L 48.4375 0 
z
" id="ArialMT-75"/>
      </defs>
      <g style="fill:#262626;" transform="translate(172.354781937 283.11640625)rotate(-90.0)scale(0.1 -0.1)">
       <use xlink:href="#ArialMT-4a"/>
       <use x="50.0" xlink:href="#ArialMT-75"/>
       <use x="105.615234375" xlink:href="#ArialMT-6e"/>
       <use x="161.23046875" xlink:href="#ArialMT-20"/>
       <use x="189.013671875" xlink:href="#ArialMT-32"/>
       <use x="244.62890625" xlink:href="#ArialMT-30"/>
       <use x="300.244140625" xlink:href="#ArialMT-31"/>
       <use x="355.859375" xlink:href="#ArialMT-35"/>
      </g>
     </g>
    </g>
    <g id="xtick_7">
     <g id="line2d_19">
      <path clip-path="url(#pa7c396f895)" d="M 197.363032 234.972656 
L 197.363032 11.772656 
" style="fill:none;stroke:#ffffff;stroke-linecap:round;"/>
     </g>
     <g id="line2d_20">
      <g>
       <use style="fill:#262626;stroke:#262626;" x="197.36303228" xlink:href="#m758acee16a" y="234.97265625"/>
      </g>
     </g>
     <g id="line2d_21">
      <g>
       <use style="fill:#262626;stroke:#262626;" x="197.36303228" xlink:href="#m758acee16a" y="11.77265625"/>
      </g>
     </g>
     <g id="text_7">
      <!-- Jul 2015 -->
      <defs>
       <path d="M 6.390625 0 
L 6.390625 71.578125 
L 15.1875 71.578125 
L 15.1875 0 
z
" id="ArialMT-6c"/>
      </defs>
      <g style="fill:#262626;" transform="translate(199.94818853 279.77734375)rotate(-90.0)scale(0.1 -0.1)">
       <use xlink:href="#ArialMT-4a"/>
       <use x="50.0" xlink:href="#ArialMT-75"/>
       <use x="105.615234375" xlink:href="#ArialMT-6c"/>
       <use x="127.83203125" xlink:href="#ArialMT-20"/>
       <use x="155.615234375" xlink:href="#ArialMT-32"/>
       <use x="211.23046875" xlink:href="#ArialMT-30"/>
       <use x="266.845703125" xlink:href="#ArialMT-31"/>
       <use x="322.4609375" xlink:href="#ArialMT-35"/>
      </g>
     </g>
    </g>
    <g id="xtick_8">
     <g id="line2d_22">
      <path clip-path="url(#pa7c396f895)" d="M 225.876219 234.972656 
L 225.876219 11.772656 
" style="fill:none;stroke:#ffffff;stroke-linecap:round;"/>
     </g>
     <g id="line2d_23">
      <g>
       <use style="fill:#262626;stroke:#262626;" x="225.876219093" xlink:href="#m758acee16a" y="234.97265625"/>
      </g>
     </g>
     <g id="line2d_24">
      <g>
       <use style="fill:#262626;stroke:#262626;" x="225.876219093" xlink:href="#m758acee16a" y="11.77265625"/>
      </g>
     </g>
     <g id="text_8">
      <!-- Aug 2015 -->
      <defs>
       <path d="M 4.984375 -4.296875 
L 13.53125 -5.5625 
Q 14.0625 -9.515625 16.5 -11.328125 
Q 19.78125 -13.765625 25.4375 -13.765625 
Q 31.546875 -13.765625 34.859375 -11.328125 
Q 38.1875 -8.890625 39.359375 -4.5 
Q 40.046875 -1.8125 39.984375 6.78125 
Q 34.234375 0 25.640625 0 
Q 14.9375 0 9.078125 7.71875 
Q 3.21875 15.4375 3.21875 26.21875 
Q 3.21875 33.640625 5.90625 39.90625 
Q 8.59375 46.1875 13.6875 49.609375 
Q 18.796875 53.03125 25.6875 53.03125 
Q 34.859375 53.03125 40.828125 45.609375 
L 40.828125 51.859375 
L 48.921875 51.859375 
L 48.921875 7.03125 
Q 48.921875 -5.078125 46.453125 -10.125 
Q 44 -15.1875 38.640625 -18.109375 
Q 33.296875 -21.046875 25.484375 -21.046875 
Q 16.21875 -21.046875 10.5 -16.875 
Q 4.78125 -12.703125 4.984375 -4.296875 
M 12.25 26.859375 
Q 12.25 16.65625 16.296875 11.96875 
Q 20.359375 7.28125 26.46875 7.28125 
Q 32.515625 7.28125 36.609375 11.9375 
Q 40.71875 16.609375 40.71875 26.5625 
Q 40.71875 36.078125 36.5 40.90625 
Q 32.28125 45.75 26.3125 45.75 
Q 20.453125 45.75 16.34375 40.984375 
Q 12.25 36.234375 12.25 26.859375 
" id="ArialMT-67"/>
      </defs>
      <g style="fill:#262626;" transform="translate(228.417625343 284.78671875)rotate(-90.0)scale(0.1 -0.1)">
       <use xlink:href="#ArialMT-41"/>
       <use x="66.69921875" xlink:href="#ArialMT-75"/>
       <use x="122.314453125" xlink:href="#ArialMT-67"/>
       <use x="177.9296875" xlink:href="#ArialMT-20"/>
       <use x="205.712890625" xlink:href="#ArialMT-32"/>
       <use x="261.328125" xlink:href="#ArialMT-30"/>
       <use x="316.943359375" xlink:href="#ArialMT-31"/>
       <use x="372.55859375" xlink:href="#ArialMT-35"/>
      </g>
     </g>
    </g>
    <g id="xtick_9">
     <g id="line2d_25">
      <path clip-path="url(#pa7c396f895)" d="M 254.389406 234.972656 
L 254.389406 11.772656 
" style="fill:none;stroke:#ffffff;stroke-linecap:round;"/>
     </g>
     <g id="line2d_26">
      <g>
       <use style="fill:#262626;stroke:#262626;" x="254.389405907" xlink:href="#m758acee16a" y="234.97265625"/>
      </g>
     </g>
     <g id="line2d_27">
      <g>
       <use style="fill:#262626;stroke:#262626;" x="254.389405907" xlink:href="#m758acee16a" y="11.77265625"/>
      </g>
     </g>
     <g id="text_9">
      <!-- Sep 2015 -->
      <defs>
       <path d="M 4.5 23 
L 13.421875 23.78125 
Q 14.0625 18.40625 16.375 14.96875 
Q 18.703125 11.53125 23.578125 9.40625 
Q 28.46875 7.28125 34.578125 7.28125 
Q 39.984375 7.28125 44.140625 8.890625 
Q 48.296875 10.5 50.3125 13.296875 
Q 52.34375 16.109375 52.34375 19.4375 
Q 52.34375 22.796875 50.390625 25.3125 
Q 48.4375 27.828125 43.953125 29.546875 
Q 41.0625 30.671875 31.203125 33.03125 
Q 21.34375 35.40625 17.390625 37.5 
Q 12.25 40.1875 9.734375 44.15625 
Q 7.234375 48.140625 7.234375 53.078125 
Q 7.234375 58.5 10.296875 63.203125 
Q 13.375 67.921875 19.28125 70.359375 
Q 25.203125 72.796875 32.421875 72.796875 
Q 40.375 72.796875 46.453125 70.234375 
Q 52.546875 67.671875 55.8125 62.6875 
Q 59.078125 57.71875 59.328125 51.421875 
L 50.25 50.734375 
Q 49.515625 57.515625 45.28125 60.984375 
Q 41.0625 64.453125 32.8125 64.453125 
Q 24.21875 64.453125 20.28125 61.296875 
Q 16.359375 58.15625 16.359375 53.71875 
Q 16.359375 49.859375 19.140625 47.359375 
Q 21.875 44.875 33.421875 42.265625 
Q 44.96875 39.65625 49.265625 37.703125 
Q 55.515625 34.8125 58.484375 30.390625 
Q 61.46875 25.984375 61.46875 20.21875 
Q 61.46875 14.5 58.203125 9.4375 
Q 54.9375 4.390625 48.796875 1.578125 
Q 42.671875 -1.21875 35.015625 -1.21875 
Q 25.296875 -1.21875 18.71875 1.609375 
Q 12.15625 4.4375 8.421875 10.125 
Q 4.6875 15.828125 4.5 23 
" id="ArialMT-53"/>
      </defs>
      <g style="fill:#262626;" transform="translate(257.035499657 284.78671875)rotate(-90.0)scale(0.1 -0.1)">
       <use xlink:href="#ArialMT-53"/>
       <use x="66.69921875" xlink:href="#ArialMT-65"/>
       <use x="122.314453125" xlink:href="#ArialMT-70"/>
       <use x="177.9296875" xlink:href="#ArialMT-20"/>
       <use x="205.712890625" xlink:href="#ArialMT-32"/>
       <use x="261.328125" xlink:href="#ArialMT-30"/>
       <use x="316.943359375" xlink:href="#ArialMT-31"/>
       <use x="372.55859375" xlink:href="#ArialMT-35"/>
      </g>
     </g>
    </g>
    <g id="xtick_10">
     <g id="line2d_28">
      <path clip-path="url(#pa7c396f895)" d="M 281.982812 234.972656 
L 281.982812 11.772656 
" style="fill:none;stroke:#ffffff;stroke-linecap:round;"/>
     </g>
     <g id="line2d_29">
      <g>
       <use style="fill:#262626;stroke:#262626;" x="281.9828125" xlink:href="#m758acee16a" y="234.97265625"/>
      </g>
     </g>
     <g id="line2d_30">
      <g>
       <use style="fill:#262626;stroke:#262626;" x="281.9828125" xlink:href="#m758acee16a" y="11.77265625"/>
      </g>
     </g>
     <g id="text_10">
      <!-- Oct 2015 -->
      <defs>
       <path d="M 40.4375 19 
L 49.078125 17.875 
Q 47.65625 8.9375 41.8125 3.875 
Q 35.984375 -1.171875 27.484375 -1.171875 
Q 16.84375 -1.171875 10.375 5.78125 
Q 3.90625 12.75 3.90625 25.734375 
Q 3.90625 34.125 6.6875 40.421875 
Q 9.46875 46.734375 15.15625 49.875 
Q 20.84375 53.03125 27.546875 53.03125 
Q 35.984375 53.03125 41.359375 48.75 
Q 46.734375 44.484375 48.25 36.625 
L 39.703125 35.296875 
Q 38.484375 40.53125 35.375 43.15625 
Q 32.28125 45.796875 27.875 45.796875 
Q 21.234375 45.796875 17.078125 41.03125 
Q 12.9375 36.28125 12.9375 25.984375 
Q 12.9375 15.53125 16.9375 10.796875 
Q 20.953125 6.0625 27.390625 6.0625 
Q 32.5625 6.0625 36.03125 9.234375 
Q 39.5 12.40625 40.4375 19 
" id="ArialMT-63"/>
       <path d="M 25.78125 7.859375 
L 27.046875 0.09375 
Q 23.34375 -0.6875 20.40625 -0.6875 
Q 15.625 -0.6875 12.984375 0.828125 
Q 10.359375 2.34375 9.28125 4.8125 
Q 8.203125 7.28125 8.203125 15.1875 
L 8.203125 45.015625 
L 1.765625 45.015625 
L 1.765625 51.859375 
L 8.203125 51.859375 
L 8.203125 64.703125 
L 16.9375 69.96875 
L 16.9375 51.859375 
L 25.78125 51.859375 
L 25.78125 45.015625 
L 16.9375 45.015625 
L 16.9375 14.703125 
Q 16.9375 10.9375 17.40625 9.859375 
Q 17.875 8.796875 18.921875 8.15625 
Q 19.96875 7.515625 21.921875 7.515625 
Q 23.390625 7.515625 25.78125 7.859375 
" id="ArialMT-74"/>
       <path d="M 4.828125 34.859375 
Q 4.828125 52.6875 14.390625 62.765625 
Q 23.96875 72.859375 39.109375 72.859375 
Q 49.03125 72.859375 56.984375 68.109375 
Q 64.9375 63.375 69.109375 54.90625 
Q 73.296875 46.4375 73.296875 35.6875 
Q 73.296875 24.8125 68.890625 16.21875 
Q 64.5 7.625 56.4375 3.203125 
Q 48.390625 -1.21875 39.0625 -1.21875 
Q 28.953125 -1.21875 20.984375 3.65625 
Q 13.03125 8.546875 8.921875 16.984375 
Q 4.828125 25.4375 4.828125 34.859375 
M 14.59375 34.71875 
Q 14.59375 21.78125 21.546875 14.328125 
Q 28.515625 6.890625 39.015625 6.890625 
Q 49.703125 6.890625 56.609375 14.40625 
Q 63.53125 21.921875 63.53125 35.75 
Q 63.53125 44.484375 60.578125 51 
Q 57.625 57.515625 51.921875 61.109375 
Q 46.234375 64.703125 39.15625 64.703125 
Q 29.109375 64.703125 21.84375 57.78125 
Q 14.59375 50.875 14.59375 34.71875 
" id="ArialMT-4f"/>
      </defs>
      <g style="fill:#262626;" transform="translate(284.56796875 282.55078125)rotate(-90.0)scale(0.1 -0.1)">
       <use xlink:href="#ArialMT-4f"/>
       <use x="77.783203125" xlink:href="#ArialMT-63"/>
       <use x="127.783203125" xlink:href="#ArialMT-74"/>
       <use x="155.56640625" xlink:href="#ArialMT-20"/>
       <use x="183.349609375" xlink:href="#ArialMT-32"/>
       <use x="238.96484375" xlink:href="#ArialMT-30"/>
       <use x="294.580078125" xlink:href="#ArialMT-31"/>
       <use x="350.1953125" xlink:href="#ArialMT-35"/>
      </g>
     </g>
    </g>
    <g id="xtick_11">
     <g id="line2d_31">
      <path clip-path="url(#pa7c396f895)" d="M 310.495999 234.972656 
L 310.495999 11.772656 
" style="fill:none;stroke:#ffffff;stroke-linecap:round;"/>
     </g>
     <g id="line2d_32">
      <g>
       <use style="fill:#262626;stroke:#262626;" x="310.495999313" xlink:href="#m758acee16a" y="234.97265625"/>
      </g>
     </g>
     <g id="line2d_33">
      <g>
       <use style="fill:#262626;stroke:#262626;" x="310.495999313" xlink:href="#m758acee16a" y="11.77265625"/>
      </g>
     </g>
     <g id="text_11">
      <!-- Nov 2015 -->
      <defs>
       <path d="M 21 0 
L 1.265625 51.859375 
L 10.546875 51.859375 
L 21.6875 20.796875 
Q 23.484375 15.765625 25 10.359375 
Q 26.171875 14.453125 28.265625 20.21875 
L 39.796875 51.859375 
L 48.828125 51.859375 
L 29.203125 0 
z
" id="ArialMT-76"/>
       <path d="M 7.625 0 
L 7.625 71.578125 
L 17.328125 71.578125 
L 54.9375 15.375 
L 54.9375 71.578125 
L 64.015625 71.578125 
L 64.015625 0 
L 54.296875 0 
L 16.703125 56.25 
L 16.703125 0 
z
" id="ArialMT-4e"/>
       <path d="M 3.328125 25.921875 
Q 3.328125 40.328125 11.328125 47.265625 
Q 18.015625 53.03125 27.640625 53.03125 
Q 38.328125 53.03125 45.109375 46.015625 
Q 51.90625 39.015625 51.90625 26.65625 
Q 51.90625 16.65625 48.90625 10.90625 
Q 45.90625 5.171875 40.15625 2 
Q 34.421875 -1.171875 27.640625 -1.171875 
Q 16.75 -1.171875 10.03125 5.8125 
Q 3.328125 12.796875 3.328125 25.921875 
M 12.359375 25.921875 
Q 12.359375 15.96875 16.703125 11.015625 
Q 21.046875 6.0625 27.640625 6.0625 
Q 34.1875 6.0625 38.53125 11.03125 
Q 42.875 16.015625 42.875 26.21875 
Q 42.875 35.84375 38.5 40.796875 
Q 34.125 45.75 27.640625 45.75 
Q 21.046875 45.75 16.703125 40.8125 
Q 12.359375 35.890625 12.359375 25.921875 
" id="ArialMT-6f"/>
      </defs>
      <g style="fill:#262626;" transform="translate(313.081155563 284.77734375)rotate(-90.0)scale(0.1 -0.1)">
       <use xlink:href="#ArialMT-4e"/>
       <use x="72.216796875" xlink:href="#ArialMT-6f"/>
       <use x="127.83203125" xlink:href="#ArialMT-76"/>
       <use x="177.83203125" xlink:href="#ArialMT-20"/>
       <use x="205.615234375" xlink:href="#ArialMT-32"/>
       <use x="261.23046875" xlink:href="#ArialMT-30"/>
       <use x="316.845703125" xlink:href="#ArialMT-31"/>
       <use x="372.4609375" xlink:href="#ArialMT-35"/>
      </g>
     </g>
    </g>
    <g id="xtick_12">
     <g id="line2d_34">
      <path clip-path="url(#pa7c396f895)" d="M 338.089406 234.972656 
L 338.089406 11.772656 
" style="fill:none;stroke:#ffffff;stroke-linecap:round;"/>
     </g>
     <g id="line2d_35">
      <g>
       <use style="fill:#262626;stroke:#262626;" x="338.089405907" xlink:href="#m758acee16a" y="234.97265625"/>
      </g>
     </g>
     <g id="line2d_36">
      <g>
       <use style="fill:#262626;stroke:#262626;" x="338.089405907" xlink:href="#m758acee16a" y="11.77265625"/>
      </g>
     </g>
     <g id="text_12">
      <!-- Dec 2015 -->
      <defs>
       <path d="M 7.71875 0 
L 7.71875 71.578125 
L 32.375 71.578125 
Q 40.71875 71.578125 45.125 70.5625 
Q 51.265625 69.140625 55.609375 65.4375 
Q 61.28125 60.640625 64.078125 53.1875 
Q 66.890625 45.75 66.890625 36.1875 
Q 66.890625 28.03125 64.984375 21.734375 
Q 63.09375 15.4375 60.109375 11.296875 
Q 57.125 7.171875 53.578125 4.796875 
Q 50.046875 2.4375 45.046875 1.21875 
Q 40.046875 0 33.546875 0 
z
M 17.1875 8.453125 
L 32.46875 8.453125 
Q 39.546875 8.453125 43.578125 9.765625 
Q 47.609375 11.078125 50 13.484375 
Q 53.375 16.84375 55.25 22.53125 
Q 57.125 28.21875 57.125 36.328125 
Q 57.125 47.5625 53.4375 53.59375 
Q 49.75 59.625 44.484375 61.671875 
Q 40.671875 63.140625 32.234375 63.140625 
L 17.1875 63.140625 
z
" id="ArialMT-44"/>
      </defs>
      <g style="fill:#262626;" transform="translate(340.674562157 284.77734375)rotate(-90.0)scale(0.1 -0.1)">
       <use xlink:href="#ArialMT-44"/>
       <use x="72.216796875" xlink:href="#ArialMT-65"/>
       <use x="127.83203125" xlink:href="#ArialMT-63"/>
       <use x="177.83203125" xlink:href="#ArialMT-20"/>
       <use x="205.615234375" xlink:href="#ArialMT-32"/>
       <use x="261.23046875" xlink:href="#ArialMT-30"/>
       <use x="316.845703125" xlink:href="#ArialMT-31"/>
       <use x="372.4609375" xlink:href="#ArialMT-35"/>
      </g>
     </g>
    </g>
   </g>
   <g id="matplotlib.axis_2">
    <g id="ytick_1">
     <g id="line2d_37">
      <path clip-path="url(#pa7c396f895)" d="M 30.882813 234.972656 
L 365.682813 234.972656 
" style="fill:none;stroke:#ffffff;stroke-linecap:round;"/>
     </g>
     <g id="line2d_38">
      <g>
       <use style="fill:#262626;stroke:#262626;" x="30.8828125" xlink:href="#m758acee16a" y="234.97265625"/>
      </g>
     </g>
     <g id="line2d_39">
      <g>
       <use style="fill:#262626;stroke:#262626;" x="365.6828125" xlink:href="#m758acee16a" y="234.97265625"/>
      </g>
     </g>
     <g id="text_13">
      <!-- 100 -->
      <g style="fill:#262626;" transform="translate(7.2 237.5578125)scale(0.1 -0.1)">
       <use xlink:href="#ArialMT-31"/>
       <use x="55.615234375" xlink:href="#ArialMT-30"/>
       <use x="111.23046875" xlink:href="#ArialMT-30"/>
      </g>
     </g>
    </g>
    <g id="ytick_2">
     <g id="line2d_40">
      <path clip-path="url(#pa7c396f895)" d="M 30.882813 207.072656 
L 365.682813 207.072656 
" style="fill:none;stroke:#ffffff;stroke-linecap:round;"/>
     </g>
     <g id="line2d_41">
      <g>
       <use style="fill:#262626;stroke:#262626;" x="30.8828125" xlink:href="#m758acee16a" y="207.07265625"/>
      </g>
     </g>
     <g id="line2d_42">
      <g>
       <use style="fill:#262626;stroke:#262626;" x="365.6828125" xlink:href="#m758acee16a" y="207.07265625"/>
      </g>
     </g>
     <g id="text_14">
      <!-- 150 -->
      <g style="fill:#262626;" transform="translate(7.2 209.6578125)scale(0.1 -0.1)">
       <use xlink:href="#ArialMT-31"/>
       <use x="55.615234375" xlink:href="#ArialMT-35"/>
       <use x="111.23046875" xlink:href="#ArialMT-30"/>
      </g>
     </g>
    </g>
    <g id="ytick_3">
     <g id="line2d_43">
      <path clip-path="url(#pa7c396f895)" d="M 30.882813 179.172656 
L 365.682813 179.172656 
" style="fill:none;stroke:#ffffff;stroke-linecap:round;"/>
     </g>
     <g id="line2d_44">
      <g>
       <use style="fill:#262626;stroke:#262626;" x="30.8828125" xlink:href="#m758acee16a" y="179.17265625"/>
      </g>
     </g>
     <g id="line2d_45">
      <g>
       <use style="fill:#262626;stroke:#262626;" x="365.6828125" xlink:href="#m758acee16a" y="179.17265625"/>
      </g>
     </g>
     <g id="text_15">
      <!-- 200 -->
      <g style="fill:#262626;" transform="translate(7.2 181.7578125)scale(0.1 -0.1)">
       <use xlink:href="#ArialMT-32"/>
       <use x="55.615234375" xlink:href="#ArialMT-30"/>
       <use x="111.23046875" xlink:href="#ArialMT-30"/>
      </g>
     </g>
    </g>
    <g id="ytick_4">
     <g id="line2d_46">
      <path clip-path="url(#pa7c396f895)" d="M 30.882813 151.272656 
L 365.682813 151.272656 
" style="fill:none;stroke:#ffffff;stroke-linecap:round;"/>
     </g>
     <g id="line2d_47">
      <g>
       <use style="fill:#262626;stroke:#262626;" x="30.8828125" xlink:href="#m758acee16a" y="151.27265625"/>
      </g>
     </g>
     <g id="line2d_48">
      <g>
       <use style="fill:#262626;stroke:#262626;" x="365.6828125" xlink:href="#m758acee16a" y="151.27265625"/>
      </g>
     </g>
     <g id="text_16">
      <!-- 250 -->
      <g style="fill:#262626;" transform="translate(7.2 153.8578125)scale(0.1 -0.1)">
       <use xlink:href="#ArialMT-32"/>
       <use x="55.615234375" xlink:href="#ArialMT-35"/>
       <use x="111.23046875" xlink:href="#ArialMT-30"/>
      </g>
     </g>
    </g>
    <g id="ytick_5">
     <g id="line2d_49">
      <path clip-path="url(#pa7c396f895)" d="M 30.882813 123.372656 
L 365.682813 123.372656 
" style="fill:none;stroke:#ffffff;stroke-linecap:round;"/>
     </g>
     <g id="line2d_50">
      <g>
       <use style="fill:#262626;stroke:#262626;" x="30.8828125" xlink:href="#m758acee16a" y="123.37265625"/>
      </g>
     </g>
     <g id="line2d_51">
      <g>
       <use style="fill:#262626;stroke:#262626;" x="365.6828125" xlink:href="#m758acee16a" y="123.37265625"/>
      </g>
     </g>
     <g id="text_17">
      <!-- 300 -->
      <defs>
       <path d="M 4.203125 18.890625 
L 12.984375 20.0625 
Q 14.5 12.59375 18.140625 9.296875 
Q 21.78125 6 27 6 
Q 33.203125 6 37.46875 10.296875 
Q 41.75 14.59375 41.75 20.953125 
Q 41.75 27 37.796875 30.921875 
Q 33.84375 34.859375 27.734375 34.859375 
Q 25.25 34.859375 21.53125 33.890625 
L 22.515625 41.609375 
Q 23.390625 41.5 23.921875 41.5 
Q 29.546875 41.5 34.03125 44.421875 
Q 38.53125 47.359375 38.53125 53.46875 
Q 38.53125 58.296875 35.25 61.46875 
Q 31.984375 64.65625 26.8125 64.65625 
Q 21.6875 64.65625 18.265625 61.421875 
Q 14.84375 58.203125 13.875 51.765625 
L 5.078125 53.328125 
Q 6.6875 62.15625 12.390625 67.015625 
Q 18.109375 71.875 26.609375 71.875 
Q 32.46875 71.875 37.390625 69.359375 
Q 42.328125 66.84375 44.9375 62.5 
Q 47.5625 58.15625 47.5625 53.265625 
Q 47.5625 48.640625 45.0625 44.828125 
Q 42.578125 41.015625 37.703125 38.765625 
Q 44.046875 37.3125 47.5625 32.6875 
Q 51.078125 28.078125 51.078125 21.140625 
Q 51.078125 11.765625 44.234375 5.25 
Q 37.40625 -1.265625 26.953125 -1.265625 
Q 17.53125 -1.265625 11.296875 4.34375 
Q 5.078125 9.96875 4.203125 18.890625 
" id="ArialMT-33"/>
      </defs>
      <g style="fill:#262626;" transform="translate(7.2 125.9578125)scale(0.1 -0.1)">
       <use xlink:href="#ArialMT-33"/>
       <use x="55.615234375" xlink:href="#ArialMT-30"/>
       <use x="111.23046875" xlink:href="#ArialMT-30"/>
      </g>
     </g>
    </g>
    <g id="ytick_6">
     <g id="line2d_52">
      <path clip-path="url(#pa7c396f895)" d="M 30.882813 95.472656 
L 365.682813 95.472656 
" style="fill:none;stroke:#ffffff;stroke-linecap:round;"/>
     </g>
     <g id="line2d_53">
      <g>
       <use style="fill:#262626;stroke:#262626;" x="30.8828125" xlink:href="#m758acee16a" y="95.47265625"/>
      </g>
     </g>
     <g id="line2d_54">
      <g>
       <use style="fill:#262626;stroke:#262626;" x="365.6828125" xlink:href="#m758acee16a" y="95.47265625"/>
      </g>
     </g>
     <g id="text_18">
      <!-- 350 -->
      <g style="fill:#262626;" transform="translate(7.2 98.0578125)scale(0.1 -0.1)">
       <use xlink:href="#ArialMT-33"/>
       <use x="55.615234375" xlink:href="#ArialMT-35"/>
       <use x="111.23046875" xlink:href="#ArialMT-30"/>
      </g>
     </g>
    </g>
    <g id="ytick_7">
     <g id="line2d_55">
      <path clip-path="url(#pa7c396f895)" d="M 30.882813 67.572656 
L 365.682813 67.572656 
" style="fill:none;stroke:#ffffff;stroke-linecap:round;"/>
     </g>
     <g id="line2d_56">
      <g>
       <use style="fill:#262626;stroke:#262626;" x="30.8828125" xlink:href="#m758acee16a" y="67.57265625"/>
      </g>
     </g>
     <g id="line2d_57">
      <g>
       <use style="fill:#262626;stroke:#262626;" x="365.6828125" xlink:href="#m758acee16a" y="67.57265625"/>
      </g>
     </g>
     <g id="text_19">
      <!-- 400 -->
      <defs>
       <path d="M 32.328125 0 
L 32.328125 17.140625 
L 1.265625 17.140625 
L 1.265625 25.203125 
L 33.9375 71.578125 
L 41.109375 71.578125 
L 41.109375 25.203125 
L 50.78125 25.203125 
L 50.78125 17.140625 
L 41.109375 17.140625 
L 41.109375 0 
z
M 32.328125 25.203125 
L 32.328125 57.46875 
L 9.90625 25.203125 
z
" id="ArialMT-34"/>
      </defs>
      <g style="fill:#262626;" transform="translate(7.2 70.1578125)scale(0.1 -0.1)">
       <use xlink:href="#ArialMT-34"/>
       <use x="55.615234375" xlink:href="#ArialMT-30"/>
       <use x="111.23046875" xlink:href="#ArialMT-30"/>
      </g>
     </g>
    </g>
    <g id="ytick_8">
     <g id="line2d_58">
      <path clip-path="url(#pa7c396f895)" d="M 30.882813 39.672656 
L 365.682813 39.672656 
" style="fill:none;stroke:#ffffff;stroke-linecap:round;"/>
     </g>
     <g id="line2d_59">
      <g>
       <use style="fill:#262626;stroke:#262626;" x="30.8828125" xlink:href="#m758acee16a" y="39.67265625"/>
      </g>
     </g>
     <g id="line2d_60">
      <g>
       <use style="fill:#262626;stroke:#262626;" x="365.6828125" xlink:href="#m758acee16a" y="39.67265625"/>
      </g>
     </g>
     <g id="text_20">
      <!-- 450 -->
      <g style="fill:#262626;" transform="translate(7.2 42.2578125)scale(0.1 -0.1)">
       <use xlink:href="#ArialMT-34"/>
       <use x="55.615234375" xlink:href="#ArialMT-35"/>
       <use x="111.23046875" xlink:href="#ArialMT-30"/>
      </g>
     </g>
    </g>
    <g id="ytick_9">
     <g id="line2d_61">
      <path clip-path="url(#pa7c396f895)" d="M 30.882813 11.772656 
L 365.682813 11.772656 
" style="fill:none;stroke:#ffffff;stroke-linecap:round;"/>
     </g>
     <g id="line2d_62">
      <g>
       <use style="fill:#262626;stroke:#262626;" x="30.8828125" xlink:href="#m758acee16a" y="11.77265625"/>
      </g>
     </g>
     <g id="line2d_63">
      <g>
       <use style="fill:#262626;stroke:#262626;" x="365.6828125" xlink:href="#m758acee16a" y="11.77265625"/>
      </g>
     </g>
     <g id="text_21">
      <!-- 500 -->
      <g style="fill:#262626;" transform="translate(7.2 14.3578125)scale(0.1 -0.1)">
       <use xlink:href="#ArialMT-35"/>
       <use x="55.615234375" xlink:href="#ArialMT-30"/>
       <use x="111.23046875" xlink:href="#ArialMT-30"/>
      </g>
     </g>
    </g>
   </g>
   <g id="line2d_64">
    <path clip-path="url(#pa7c396f895)" d="M 30.882812 166.617656 
L 31.802593 166.896656 
L 34.561933 166.896656 
L 35.481714 167.175656 
L 36.401494 168.012656 
L 37.321274 168.291656 
L 38.241054 168.849656 
L 39.160834 169.128656 
L 41.000395 169.128656 
L 41.920175 168.849656 
L 42.839955 168.291656 
L 44.679516 169.407656 
L 45.599296 170.244656 
L 46.519076 170.244656 
L 48.358637 170.802656 
L 49.278417 169.965656 
L 50.198197 169.686656 
L 51.117977 171.360656 
L 52.037758 171.918656 
L 52.957538 170.244656 
L 53.877318 170.523656 
L 54.797098 170.523656 
L 55.716878 169.128656 
L 57.556439 169.128656 
L 59.395999 170.244656 
L 60.31578 169.686656 
L 61.23556 169.686656 
L 62.15534 168.570656 
L 63.9949 164.385656 
L 64.914681 163.548656 
L 65.834461 162.990656 
L 66.754241 162.990656 
L 68.593802 161.316656 
L 69.513582 161.595656 
L 70.433362 162.153656 
L 71.353142 160.758656 
L 72.272922 158.805656 
L 73.192703 157.968656 
L 75.032263 155.178656 
L 75.952043 155.457656 
L 76.871823 149.877656 
L 77.791604 142.344656 
L 78.711384 139.554656 
L 80.550944 135.369656 
L 83.310285 132.021656 
L 84.230065 131.184656 
L 85.149845 130.626656 
L 86.069626 129.789656 
L 86.989406 128.394656 
L 87.909186 126.720656 
L 88.828966 126.441656 
L 90.668527 124.767656 
L 91.588307 123.372656 
L 94.347648 123.372656 
L 96.187208 122.256656 
L 98.946549 122.256656 
L 100.786109 121.140656 
L 103.54545 121.140656 
L 104.46523 120.582656 
L 107.224571 120.582656 
L 109.064131 118.908656 
L 109.983911 118.908656 
L 110.903692 119.466656 
L 112.743252 118.350656 
L 113.663032 116.397656 
L 114.582812 115.560656 
L 116.422373 115.560656 
L 118.261933 113.886656 
L 119.181714 114.444656 
L 120.101494 114.444656 
L 121.021274 114.165656 
L 121.941054 113.328656 
L 122.860834 113.328656 
L 123.780615 112.770656 
L 124.700395 112.770656 
L 125.620175 112.212656 
L 126.539955 112.212656 
L 127.459736 111.654656 
L 129.299296 109.980656 
L 130.219076 109.422656 
L 131.138856 109.422656 
L 133.898197 107.748656 
L 134.817977 107.748656 
L 135.737758 107.469656 
L 136.657538 106.632656 
L 137.577318 106.632656 
L 139.416878 106.074656 
L 140.336659 105.516656 
L 141.256439 105.516656 
L 143.095999 104.400656 
L 144.01578 103.284656 
L 144.93556 101.610656 
L 146.77512 99.936656 
L 148.614681 99.936656 
L 149.534461 99.099656 
L 150.454241 97.704656 
L 151.374021 97.704656 
L 152.293802 96.867656 
L 153.213582 96.309656 
L 154.133362 96.309656 
L 155.053142 94.077656 
L 155.972922 92.961656 
L 156.892703 92.124656 
L 157.812483 91.845656 
L 162.411384 86.265656 
L 163.331164 85.428656 
L 166.090505 82.080656 
L 167.010285 80.685656 
L 167.930065 79.569656 
L 168.849845 78.174656 
L 169.769626 76.221656 
L 171.609186 73.989656 
L 172.528966 72.594656 
L 174.368527 70.362656 
L 175.288307 68.409656 
L 178.047648 65.061656 
L 178.967428 63.666656 
L 179.887208 61.713656 
L 180.806988 60.876656 
L 181.726769 59.760656 
L 182.646549 58.365656 
L 183.566329 57.249656 
L 184.486109 56.412656 
L 185.405889 55.854656 
L 186.32567 54.738656 
L 187.24545 53.064656 
L 188.16523 51.948656 
L 191.844351 48.600656 
L 192.764131 48.042656 
L 194.603692 46.368656 
L 195.523472 45.810656 
L 196.443252 44.973656 
L 197.363032 43.857656 
L 198.282812 43.020656 
L 200.122373 41.904656 
L 201.042153 41.625656 
L 201.961933 41.904656 
L 202.881714 40.509656 
L 203.801494 38.556656 
L 204.721274 37.998656 
L 206.560834 37.998656 
L 207.480615 37.440656 
L 208.400395 36.324656 
L 209.320175 35.766656 
L 210.239955 34.650656 
L 211.159736 34.092656 
L 212.079516 34.092656 
L 213.919076 34.650656 
L 214.838856 34.092656 
L 215.758637 34.371656 
L 216.678417 34.929656 
L 217.598197 35.208656 
L 218.517977 35.208656 
L 219.437758 35.487656 
L 220.357538 36.045656 
L 224.036659 37.161656 
L 227.71578 39.393656 
L 228.63556 39.672656 
L 229.55534 39.672656 
L 230.47512 39.951656 
L 231.3949 41.067656 
L 232.314681 41.904656 
L 233.234461 42.183656 
L 234.154241 43.299656 
L 235.993802 44.415656 
L 237.833362 46.089656 
L 238.753142 47.205656 
L 239.672922 47.763656 
L 240.592703 48.600656 
L 241.512483 48.879656 
L 242.432263 49.995656 
L 243.352043 50.553656 
L 244.271823 51.669656 
L 245.191604 52.227656 
L 247.950944 55.575656 
L 248.870725 56.412656 
L 249.790505 56.691656 
L 252.549845 60.039656 
L 255.309186 62.550656 
L 258.068527 66.735656 
L 259.908087 68.967656 
L 260.827867 69.525656 
L 261.747648 68.688656 
L 263.587208 68.688656 
L 264.506988 70.083656 
L 265.426769 70.641656 
L 266.346549 72.036656 
L 267.266329 73.152656 
L 268.186109 73.431656 
L 269.105889 74.547656 
L 270.94545 77.337656 
L 271.86523 78.453656 
L 272.78501 79.290656 
L 273.704791 80.406656 
L 274.624571 82.638656 
L 275.544351 84.033656 
L 276.464131 84.591656 
L 277.383911 85.986656 
L 278.303692 87.660656 
L 281.063032 91.845656 
L 281.982812 92.403656 
L 282.902593 93.519656 
L 283.822373 94.914656 
L 284.742153 96.030656 
L 285.661933 97.425656 
L 286.581714 100.215656 
L 287.501494 101.610656 
L 288.421274 103.563656 
L 289.341054 104.958656 
L 291.180615 108.864656 
L 292.100395 111.654656 
L 296.699296 123.093656 
L 297.619076 125.604656 
L 298.538856 127.278656 
L 299.458637 129.510656 
L 301.298197 135.090656 
L 302.217977 136.764656 
L 304.057538 143.181656 
L 304.977318 145.413656 
L 305.897098 147.087656 
L 306.816878 148.482656 
L 307.736659 150.714656 
L 308.656439 153.504656 
L 309.576219 151.272656 
L 310.495999 151.551656 
L 311.41578 153.504656 
L 312.33556 154.620656 
L 313.25534 154.620656 
L 314.17512 153.504656 
L 315.0949 154.062656 
L 316.014681 155.178656 
L 316.934461 157.131656 
L 317.854241 158.805656 
L 319.693802 162.711656 
L 320.613582 164.106656 
L 321.533362 166.059656 
L 323.372922 169.407656 
L 324.292703 170.523656 
L 325.212483 172.755656 
L 327.052043 178.056656 
L 327.971823 179.172656 
L 328.891604 179.172656 
L 329.811384 181.683656 
L 330.731164 182.799656 
L 331.650944 184.194656 
L 333.490505 188.379656 
L 334.410285 190.053656 
L 338.089406 194.517656 
L 339.009186 195.075656 
L 340.848747 197.307656 
L 341.768527 197.586656 
L 342.688307 195.912656 
L 343.608087 196.749656 
L 344.527867 197.307656 
L 345.447648 198.423656 
L 346.367428 199.260656 
L 347.287208 199.539656 
L 348.206988 200.097656 
L 349.126769 201.492656 
L 351.886109 203.166656 
L 352.805889 204.003656 
L 354.64545 206.235656 
L 355.56523 207.072656 
L 356.48501 207.072656 
L 358.324571 208.188656 
L 360.164131 208.188656 
L 361.083911 207.630656 
L 362.003692 207.909656 
L 362.923472 212.931656 
L 363.843252 208.467656 
L 364.763032 209.304656 
L 365.682812 209.583656 
L 365.682812 209.583656 
" style="fill:none;stroke:#4c72b0;stroke-linecap:round;stroke-width:1.75;"/>
   </g>
   <g id="patch_3">
    <path d="M 30.882812 11.772656 
L 365.682812 11.772656 
" style="fill:none;"/>
   </g>
   <g id="patch_4">
    <path d="M 365.682813 234.972656 
L 365.682813 11.772656 
" style="fill:none;"/>
   </g>
   <g id="patch_5">
    <path d="M 30.882812 234.972656 
L 365.682812 234.972656 
" style="fill:none;"/>
   </g>
   <g id="patch_6">
    <path d="M 30.882813 234.972656 
L 30.882813 11.772656 
" style="fill:none;"/>
   </g>
  </g>
 </g>
 <defs>
  <clipPath id="pa7c396f895">
   <rect height="223.2" width="334.8" x="30.8828125" y="11.77265625"/>
  </clipPath>
 </defs>
</svg>
