<?xml version="1.0" encoding="utf-8" standalone="no"?>
<!DOCTYPE svg PUBLIC "-//W3C//DTD SVG 1.1//EN"
  "http://www.w3.org/Graphics/SVG/1.1/DTD/svg11.dtd">
<!-- Created with matplotlib (http://matplotlib.org/) -->
<svg height="276pt" version="1.1" viewBox="0 0 398 276" width="398pt" xmlns="http://www.w3.org/2000/svg" xmlns:xlink="http://www.w3.org/1999/xlink">
 <defs>
  <style type="text/css">
*{stroke-linecap:butt;stroke-linejoin:round;stroke-miterlimit:100000;}
  </style>
 </defs>
 <g id="figure_1">
  <g id="patch_1">
   <path d="M 0 276.494375 
L 398.08425 276.494375 
L 398.08425 0 
L 0 0 
z
" style="fill:#ffffff;"/>
  </g>
  <g id="axes_1">
   <g id="patch_2">
    <path d="M 30.81875 256.378125 
L 387.93875 256.378125 
L 387.93875 10.858125 
L 30.81875 10.858125 
z
" style="fill:#eaeaf2;"/>
   </g>
   <g id="matplotlib.axis_1">
    <g id="xtick_1">
     <g id="line2d_1">
      <path clip-path="url(#p99c34eedbe)" d="M 84.38675 256.378125 
L 84.38675 10.858125 
" style="fill:none;stroke:#ffffff;stroke-linecap:round;stroke-width:0.8;"/>
     </g>
     <g id="line2d_2">
      <defs>
       <path d="M 0 0 
L 0 0 
" id="m8ba8561599" style="stroke:#262626;stroke-width:0.8;"/>
      </defs>
      <g>
       <use style="fill:#262626;stroke:#262626;stroke-width:0.8;" x="84.38675" xlink:href="#m8ba8561599" y="256.378125"/>
      </g>
     </g>
     <g id="line2d_3">
      <g>
       <use style="fill:#262626;stroke:#262626;stroke-width:0.8;" x="84.38675" xlink:href="#m8ba8561599" y="10.858125"/>
      </g>
     </g>
     <g id="text_1">
      <!-- 1960 -->
      <defs>
       <path d="M 4.15625 35.296875 
Q 4.15625 48 6.765625 55.734375 
Q 9.375 63.484375 14.515625 67.671875 
Q 19.671875 71.875 27.484375 71.875 
Q 33.25 71.875 37.59375 69.546875 
Q 41.9375 67.234375 44.765625 62.859375 
Q 47.609375 58.5 49.21875 52.21875 
Q 50.828125 45.953125 50.828125 35.296875 
Q 50.828125 22.703125 48.234375 14.96875 
Q 45.65625 7.234375 40.5 3 
Q 35.359375 -1.21875 27.484375 -1.21875 
Q 17.140625 -1.21875 11.234375 6.203125 
Q 4.15625 15.140625 4.15625 35.296875 
M 13.1875 35.296875 
Q 13.1875 17.671875 17.3125 11.828125 
Q 21.4375 6 27.484375 6 
Q 33.546875 6 37.671875 11.859375 
Q 41.796875 17.71875 41.796875 35.296875 
Q 41.796875 52.984375 37.671875 58.78125 
Q 33.546875 64.59375 27.390625 64.59375 
Q 21.34375 64.59375 17.71875 59.46875 
Q 13.1875 52.9375 13.1875 35.296875 
" id="ArialMT-30"/>
       <path d="M 37.25 0 
L 28.46875 0 
L 28.46875 56 
Q 25.296875 52.984375 20.140625 49.953125 
Q 14.984375 46.921875 10.890625 45.40625 
L 10.890625 53.90625 
Q 18.265625 57.375 23.78125 62.296875 
Q 29.296875 67.234375 31.59375 71.875 
L 37.25 71.875 
z
" id="ArialMT-31"/>
       <path d="M 49.75 54.046875 
L 41.015625 53.375 
Q 39.84375 58.546875 37.703125 60.890625 
Q 34.125 64.65625 28.90625 64.65625 
Q 24.703125 64.65625 21.53125 62.3125 
Q 17.390625 59.28125 14.984375 53.46875 
Q 12.59375 47.65625 12.5 36.921875 
Q 15.671875 41.75 20.265625 44.09375 
Q 24.859375 46.4375 29.890625 46.4375 
Q 38.671875 46.4375 44.84375 39.96875 
Q 51.03125 33.5 51.03125 23.25 
Q 51.03125 16.5 48.125 10.71875 
Q 45.21875 4.9375 40.140625 1.859375 
Q 35.0625 -1.21875 28.609375 -1.21875 
Q 17.625 -1.21875 10.6875 6.859375 
Q 3.765625 14.9375 3.765625 33.5 
Q 3.765625 54.25 11.421875 63.671875 
Q 18.109375 71.875 29.4375 71.875 
Q 37.890625 71.875 43.28125 67.140625 
Q 48.6875 62.40625 49.75 54.046875 
M 13.875 23.1875 
Q 13.875 18.65625 15.796875 14.5 
Q 17.71875 10.359375 21.1875 8.171875 
Q 24.65625 6 28.46875 6 
Q 34.03125 6 38.03125 10.484375 
Q 42.046875 14.984375 42.046875 22.703125 
Q 42.046875 30.125 38.078125 34.390625 
Q 34.125 38.671875 28.125 38.671875 
Q 22.171875 38.671875 18.015625 34.390625 
Q 13.875 30.125 13.875 23.1875 
" id="ArialMT-36"/>
       <path d="M 5.46875 16.546875 
L 13.921875 17.328125 
Q 14.984375 11.375 18.015625 8.6875 
Q 21.046875 6 25.78125 6 
Q 29.828125 6 32.875 7.859375 
Q 35.9375 9.71875 37.890625 12.8125 
Q 39.84375 15.921875 41.15625 21.1875 
Q 42.484375 26.46875 42.484375 31.9375 
Q 42.484375 32.515625 42.4375 33.6875 
Q 39.796875 29.5 35.234375 26.875 
Q 30.671875 24.265625 25.34375 24.265625 
Q 16.453125 24.265625 10.296875 30.703125 
Q 4.15625 37.15625 4.15625 47.703125 
Q 4.15625 58.59375 10.578125 65.234375 
Q 17 71.875 26.65625 71.875 
Q 33.640625 71.875 39.421875 68.109375 
Q 45.21875 64.359375 48.21875 57.390625 
Q 51.21875 50.4375 51.21875 37.25 
Q 51.21875 23.53125 48.234375 15.40625 
Q 45.265625 7.28125 39.375 3.03125 
Q 33.5 -1.21875 25.59375 -1.21875 
Q 17.1875 -1.21875 11.859375 3.4375 
Q 6.546875 8.109375 5.46875 16.546875 
M 41.453125 48.140625 
Q 41.453125 55.71875 37.421875 60.15625 
Q 33.40625 64.59375 27.734375 64.59375 
Q 21.875 64.59375 17.53125 59.8125 
Q 13.1875 55.03125 13.1875 47.40625 
Q 13.1875 40.578125 17.3125 36.296875 
Q 21.4375 32.03125 27.484375 32.03125 
Q 33.59375 32.03125 37.515625 36.296875 
Q 41.453125 40.578125 41.453125 48.140625 
" id="ArialMT-39"/>
      </defs>
      <g style="fill:#262626;" transform="translate(75.48925 267.704375)scale(0.08 -0.08)">
       <use xlink:href="#ArialMT-31"/>
       <use x="55.615234375" xlink:href="#ArialMT-39"/>
       <use x="111.23046875" xlink:href="#ArialMT-36"/>
       <use x="166.845703125" xlink:href="#ArialMT-30"/>
      </g>
     </g>
    </g>
    <g id="xtick_2">
     <g id="line2d_4">
      <path clip-path="url(#p99c34eedbe)" d="M 143.90675 256.378125 
L 143.90675 10.858125 
" style="fill:none;stroke:#ffffff;stroke-linecap:round;stroke-width:0.8;"/>
     </g>
     <g id="line2d_5">
      <g>
       <use style="fill:#262626;stroke:#262626;stroke-width:0.8;" x="143.90675" xlink:href="#m8ba8561599" y="256.378125"/>
      </g>
     </g>
     <g id="line2d_6">
      <g>
       <use style="fill:#262626;stroke:#262626;stroke-width:0.8;" x="143.90675" xlink:href="#m8ba8561599" y="10.858125"/>
      </g>
     </g>
     <g id="text_2">
      <!-- 1970 -->
      <defs>
       <path d="M 4.734375 62.203125 
L 4.734375 70.65625 
L 51.078125 70.65625 
L 51.078125 63.8125 
Q 44.234375 56.546875 37.515625 44.484375 
Q 30.8125 32.421875 27.15625 19.671875 
Q 24.515625 10.6875 23.78125 0 
L 14.75 0 
Q 14.890625 8.453125 18.0625 20.40625 
Q 21.234375 32.375 27.171875 43.484375 
Q 33.109375 54.59375 39.796875 62.203125 
z
" id="ArialMT-37"/>
      </defs>
      <g style="fill:#262626;" transform="translate(135.00925 267.704375)scale(0.08 -0.08)">
       <use xlink:href="#ArialMT-31"/>
       <use x="55.615234375" xlink:href="#ArialMT-39"/>
       <use x="111.23046875" xlink:href="#ArialMT-37"/>
       <use x="166.845703125" xlink:href="#ArialMT-30"/>
      </g>
     </g>
    </g>
    <g id="xtick_3">
     <g id="line2d_7">
      <path clip-path="url(#p99c34eedbe)" d="M 203.42675 256.378125 
L 203.42675 10.858125 
" style="fill:none;stroke:#ffffff;stroke-linecap:round;stroke-width:0.8;"/>
     </g>
     <g id="line2d_8">
      <g>
       <use style="fill:#262626;stroke:#262626;stroke-width:0.8;" x="203.42675" xlink:href="#m8ba8561599" y="256.378125"/>
      </g>
     </g>
     <g id="line2d_9">
      <g>
       <use style="fill:#262626;stroke:#262626;stroke-width:0.8;" x="203.42675" xlink:href="#m8ba8561599" y="10.858125"/>
      </g>
     </g>
     <g id="text_3">
      <!-- 1980 -->
      <defs>
       <path d="M 17.671875 38.8125 
Q 12.203125 40.828125 9.5625 44.53125 
Q 6.9375 48.25 6.9375 53.421875 
Q 6.9375 61.234375 12.546875 66.546875 
Q 18.171875 71.875 27.484375 71.875 
Q 36.859375 71.875 42.578125 66.421875 
Q 48.296875 60.984375 48.296875 53.171875 
Q 48.296875 48.1875 45.671875 44.5 
Q 43.0625 40.828125 37.75 38.8125 
Q 44.34375 36.671875 47.78125 31.875 
Q 51.21875 27.09375 51.21875 20.453125 
Q 51.21875 11.28125 44.71875 5.03125 
Q 38.234375 -1.21875 27.640625 -1.21875 
Q 17.046875 -1.21875 10.546875 5.046875 
Q 4.046875 11.328125 4.046875 20.703125 
Q 4.046875 27.6875 7.59375 32.390625 
Q 11.140625 37.109375 17.671875 38.8125 
M 15.921875 53.71875 
Q 15.921875 48.640625 19.1875 45.40625 
Q 22.46875 42.1875 27.6875 42.1875 
Q 32.765625 42.1875 36.015625 45.375 
Q 39.265625 48.578125 39.265625 53.21875 
Q 39.265625 58.0625 35.90625 61.359375 
Q 32.5625 64.65625 27.59375 64.65625 
Q 22.5625 64.65625 19.234375 61.421875 
Q 15.921875 58.203125 15.921875 53.71875 
M 13.09375 20.65625 
Q 13.09375 16.890625 14.875 13.375 
Q 16.65625 9.859375 20.171875 7.921875 
Q 23.6875 6 27.734375 6 
Q 34.03125 6 38.125 10.046875 
Q 42.234375 14.109375 42.234375 20.359375 
Q 42.234375 26.703125 38.015625 30.859375 
Q 33.796875 35.015625 27.4375 35.015625 
Q 21.234375 35.015625 17.15625 30.90625 
Q 13.09375 26.8125 13.09375 20.65625 
" id="ArialMT-38"/>
      </defs>
      <g style="fill:#262626;" transform="translate(194.52925 267.704375)scale(0.08 -0.08)">
       <use xlink:href="#ArialMT-31"/>
       <use x="55.615234375" xlink:href="#ArialMT-39"/>
       <use x="111.23046875" xlink:href="#ArialMT-38"/>
       <use x="166.845703125" xlink:href="#ArialMT-30"/>
      </g>
     </g>
    </g>
    <g id="xtick_4">
     <g id="line2d_10">
      <path clip-path="url(#p99c34eedbe)" d="M 262.94675 256.378125 
L 262.94675 10.858125 
" style="fill:none;stroke:#ffffff;stroke-linecap:round;stroke-width:0.8;"/>
     </g>
     <g id="line2d_11">
      <g>
       <use style="fill:#262626;stroke:#262626;stroke-width:0.8;" x="262.94675" xlink:href="#m8ba8561599" y="256.378125"/>
      </g>
     </g>
     <g id="line2d_12">
      <g>
       <use style="fill:#262626;stroke:#262626;stroke-width:0.8;" x="262.94675" xlink:href="#m8ba8561599" y="10.858125"/>
      </g>
     </g>
     <g id="text_4">
      <!-- 1990 -->
      <g style="fill:#262626;" transform="translate(254.04925 267.704375)scale(0.08 -0.08)">
       <use xlink:href="#ArialMT-31"/>
       <use x="55.615234375" xlink:href="#ArialMT-39"/>
       <use x="111.23046875" xlink:href="#ArialMT-39"/>
       <use x="166.845703125" xlink:href="#ArialMT-30"/>
      </g>
     </g>
    </g>
    <g id="xtick_5">
     <g id="line2d_13">
      <path clip-path="url(#p99c34eedbe)" d="M 322.46675 256.378125 
L 322.46675 10.858125 
" style="fill:none;stroke:#ffffff;stroke-linecap:round;stroke-width:0.8;"/>
     </g>
     <g id="line2d_14">
      <g>
       <use style="fill:#262626;stroke:#262626;stroke-width:0.8;" x="322.46675" xlink:href="#m8ba8561599" y="256.378125"/>
      </g>
     </g>
     <g id="line2d_15">
      <g>
       <use style="fill:#262626;stroke:#262626;stroke-width:0.8;" x="322.46675" xlink:href="#m8ba8561599" y="10.858125"/>
      </g>
     </g>
     <g id="text_5">
      <!-- 2000 -->
      <defs>
       <path d="M 50.34375 8.453125 
L 50.34375 0 
L 3.03125 0 
Q 2.9375 3.171875 4.046875 6.109375 
Q 5.859375 10.9375 9.828125 15.625 
Q 13.8125 20.3125 21.34375 26.46875 
Q 33.015625 36.03125 37.109375 41.625 
Q 41.21875 47.21875 41.21875 52.203125 
Q 41.21875 57.421875 37.46875 61 
Q 33.734375 64.59375 27.734375 64.59375 
Q 21.390625 64.59375 17.578125 60.78125 
Q 13.765625 56.984375 13.71875 50.25 
L 4.6875 51.171875 
Q 5.609375 61.28125 11.65625 66.578125 
Q 17.71875 71.875 27.9375 71.875 
Q 38.234375 71.875 44.234375 66.15625 
Q 50.25 60.453125 50.25 52 
Q 50.25 47.703125 48.484375 43.546875 
Q 46.734375 39.40625 42.65625 34.8125 
Q 38.578125 30.21875 29.109375 22.21875 
Q 21.1875 15.578125 18.9375 13.203125 
Q 16.703125 10.84375 15.234375 8.453125 
z
" id="ArialMT-32"/>
      </defs>
      <g style="fill:#262626;" transform="translate(313.56925 267.704375)scale(0.08 -0.08)">
       <use xlink:href="#ArialMT-32"/>
       <use x="55.615234375" xlink:href="#ArialMT-30"/>
       <use x="111.23046875" xlink:href="#ArialMT-30"/>
       <use x="166.845703125" xlink:href="#ArialMT-30"/>
      </g>
     </g>
    </g>
    <g id="xtick_6">
     <g id="line2d_16">
      <path clip-path="url(#p99c34eedbe)" d="M 381.98675 256.378125 
L 381.98675 10.858125 
" style="fill:none;stroke:#ffffff;stroke-linecap:round;stroke-width:0.8;"/>
     </g>
     <g id="line2d_17">
      <g>
       <use style="fill:#262626;stroke:#262626;stroke-width:0.8;" x="381.98675" xlink:href="#m8ba8561599" y="256.378125"/>
      </g>
     </g>
     <g id="line2d_18">
      <g>
       <use style="fill:#262626;stroke:#262626;stroke-width:0.8;" x="381.98675" xlink:href="#m8ba8561599" y="10.858125"/>
      </g>
     </g>
     <g id="text_6">
      <!-- 2010 -->
      <g style="fill:#262626;" transform="translate(373.08925 267.704375)scale(0.08 -0.08)">
       <use xlink:href="#ArialMT-32"/>
       <use x="55.615234375" xlink:href="#ArialMT-30"/>
       <use x="111.23046875" xlink:href="#ArialMT-31"/>
       <use x="166.845703125" xlink:href="#ArialMT-30"/>
      </g>
     </g>
    </g>
   </g>
   <g id="matplotlib.axis_2">
    <g id="ytick_1">
     <g id="line2d_19">
      <path clip-path="url(#p99c34eedbe)" d="M 30.81875 256.378125 
L 387.93875 256.378125 
" style="fill:none;stroke:#ffffff;stroke-linecap:round;stroke-width:0.8;"/>
     </g>
     <g id="line2d_20">
      <g>
       <use style="fill:#262626;stroke:#262626;stroke-width:0.8;" x="30.81875" xlink:href="#m8ba8561599" y="256.378125"/>
      </g>
     </g>
     <g id="line2d_21">
      <g>
       <use style="fill:#262626;stroke:#262626;stroke-width:0.8;" x="387.93875" xlink:href="#m8ba8561599" y="256.378125"/>
      </g>
     </g>
     <g id="text_7">
      <!-- −100 -->
      <defs>
       <path d="M 52.828125 31.203125 
L 5.5625 31.203125 
L 5.5625 39.40625 
L 52.828125 39.40625 
z
" id="ArialMT-2212"/>
      </defs>
      <g style="fill:#262626;" transform="translate(7.2 258.44625)scale(0.08 -0.08)">
       <use xlink:href="#ArialMT-2212"/>
       <use x="58.3984375" xlink:href="#ArialMT-31"/>
       <use x="114.013671875" xlink:href="#ArialMT-30"/>
       <use x="169.62890625" xlink:href="#ArialMT-30"/>
      </g>
     </g>
    </g>
    <g id="ytick_2">
     <g id="line2d_22">
      <path clip-path="url(#p99c34eedbe)" d="M 30.81875 229.098125 
L 387.93875 229.098125 
" style="fill:none;stroke:#ffffff;stroke-linecap:round;stroke-width:0.8;"/>
     </g>
     <g id="line2d_23">
      <g>
       <use style="fill:#262626;stroke:#262626;stroke-width:0.8;" x="30.81875" xlink:href="#m8ba8561599" y="229.098125"/>
      </g>
     </g>
     <g id="line2d_24">
      <g>
       <use style="fill:#262626;stroke:#262626;stroke-width:0.8;" x="387.93875" xlink:href="#m8ba8561599" y="229.098125"/>
      </g>
     </g>
     <g id="text_8">
      <!-- −50 -->
      <defs>
       <path d="M 4.15625 18.75 
L 13.375 19.53125 
Q 14.40625 12.796875 18.140625 9.390625 
Q 21.875 6 27.15625 6 
Q 33.5 6 37.890625 10.78125 
Q 42.28125 15.578125 42.28125 23.484375 
Q 42.28125 31 38.0625 35.34375 
Q 33.84375 39.703125 27 39.703125 
Q 22.75 39.703125 19.328125 37.765625 
Q 15.921875 35.84375 13.96875 32.765625 
L 5.71875 33.84375 
L 12.640625 70.609375 
L 48.25 70.609375 
L 48.25 62.203125 
L 19.671875 62.203125 
L 15.828125 42.96875 
Q 22.265625 47.46875 29.34375 47.46875 
Q 38.71875 47.46875 45.15625 40.96875 
Q 51.609375 34.46875 51.609375 24.265625 
Q 51.609375 14.546875 45.953125 7.46875 
Q 39.0625 -1.21875 27.15625 -1.21875 
Q 17.390625 -1.21875 11.203125 4.25 
Q 5.03125 9.71875 4.15625 18.75 
" id="ArialMT-35"/>
      </defs>
      <g style="fill:#262626;" transform="translate(11.64875 231.16625)scale(0.08 -0.08)">
       <use xlink:href="#ArialMT-2212"/>
       <use x="58.3984375" xlink:href="#ArialMT-35"/>
       <use x="114.013671875" xlink:href="#ArialMT-30"/>
      </g>
     </g>
    </g>
    <g id="ytick_3">
     <g id="line2d_25">
      <path clip-path="url(#p99c34eedbe)" d="M 30.81875 201.818125 
L 387.93875 201.818125 
" style="fill:none;stroke:#ffffff;stroke-linecap:round;stroke-width:0.8;"/>
     </g>
     <g id="line2d_26">
      <g>
       <use style="fill:#262626;stroke:#262626;stroke-width:0.8;" x="30.81875" xlink:href="#m8ba8561599" y="201.818125"/>
      </g>
     </g>
     <g id="line2d_27">
      <g>
       <use style="fill:#262626;stroke:#262626;stroke-width:0.8;" x="387.93875" xlink:href="#m8ba8561599" y="201.818125"/>
      </g>
     </g>
     <g id="text_9">
      <!-- 0 -->
      <g style="fill:#262626;" transform="translate(20.77 203.88625)scale(0.08 -0.08)">
       <use xlink:href="#ArialMT-30"/>
      </g>
     </g>
    </g>
    <g id="ytick_4">
     <g id="line2d_28">
      <path clip-path="url(#p99c34eedbe)" d="M 30.81875 174.538125 
L 387.93875 174.538125 
" style="fill:none;stroke:#ffffff;stroke-linecap:round;stroke-width:0.8;"/>
     </g>
     <g id="line2d_29">
      <g>
       <use style="fill:#262626;stroke:#262626;stroke-width:0.8;" x="30.81875" xlink:href="#m8ba8561599" y="174.538125"/>
      </g>
     </g>
     <g id="line2d_30">
      <g>
       <use style="fill:#262626;stroke:#262626;stroke-width:0.8;" x="387.93875" xlink:href="#m8ba8561599" y="174.538125"/>
      </g>
     </g>
     <g id="text_10">
      <!-- 50 -->
      <g style="fill:#262626;" transform="translate(16.32125 176.60625)scale(0.08 -0.08)">
       <use xlink:href="#ArialMT-35"/>
       <use x="55.615234375" xlink:href="#ArialMT-30"/>
      </g>
     </g>
    </g>
    <g id="ytick_5">
     <g id="line2d_31">
      <path clip-path="url(#p99c34eedbe)" d="M 30.81875 147.258125 
L 387.93875 147.258125 
" style="fill:none;stroke:#ffffff;stroke-linecap:round;stroke-width:0.8;"/>
     </g>
     <g id="line2d_32">
      <g>
       <use style="fill:#262626;stroke:#262626;stroke-width:0.8;" x="30.81875" xlink:href="#m8ba8561599" y="147.258125"/>
      </g>
     </g>
     <g id="line2d_33">
      <g>
       <use style="fill:#262626;stroke:#262626;stroke-width:0.8;" x="387.93875" xlink:href="#m8ba8561599" y="147.258125"/>
      </g>
     </g>
     <g id="text_11">
      <!-- 100 -->
      <g style="fill:#262626;" transform="translate(11.8725 149.32625)scale(0.08 -0.08)">
       <use xlink:href="#ArialMT-31"/>
       <use x="55.615234375" xlink:href="#ArialMT-30"/>
       <use x="111.23046875" xlink:href="#ArialMT-30"/>
      </g>
     </g>
    </g>
    <g id="ytick_6">
     <g id="line2d_34">
      <path clip-path="url(#p99c34eedbe)" d="M 30.81875 119.978125 
L 387.93875 119.978125 
" style="fill:none;stroke:#ffffff;stroke-linecap:round;stroke-width:0.8;"/>
     </g>
     <g id="line2d_35">
      <g>
       <use style="fill:#262626;stroke:#262626;stroke-width:0.8;" x="30.81875" xlink:href="#m8ba8561599" y="119.978125"/>
      </g>
     </g>
     <g id="line2d_36">
      <g>
       <use style="fill:#262626;stroke:#262626;stroke-width:0.8;" x="387.93875" xlink:href="#m8ba8561599" y="119.978125"/>
      </g>
     </g>
     <g id="text_12">
      <!-- 150 -->
      <g style="fill:#262626;" transform="translate(11.8725 122.04625)scale(0.08 -0.08)">
       <use xlink:href="#ArialMT-31"/>
       <use x="55.615234375" xlink:href="#ArialMT-35"/>
       <use x="111.23046875" xlink:href="#ArialMT-30"/>
      </g>
     </g>
    </g>
    <g id="ytick_7">
     <g id="line2d_37">
      <path clip-path="url(#p99c34eedbe)" d="M 30.81875 92.698125 
L 387.93875 92.698125 
" style="fill:none;stroke:#ffffff;stroke-linecap:round;stroke-width:0.8;"/>
     </g>
     <g id="line2d_38">
      <g>
       <use style="fill:#262626;stroke:#262626;stroke-width:0.8;" x="30.81875" xlink:href="#m8ba8561599" y="92.698125"/>
      </g>
     </g>
     <g id="line2d_39">
      <g>
       <use style="fill:#262626;stroke:#262626;stroke-width:0.8;" x="387.93875" xlink:href="#m8ba8561599" y="92.698125"/>
      </g>
     </g>
     <g id="text_13">
      <!-- 200 -->
      <g style="fill:#262626;" transform="translate(11.8725 94.76625)scale(0.08 -0.08)">
       <use xlink:href="#ArialMT-32"/>
       <use x="55.615234375" xlink:href="#ArialMT-30"/>
       <use x="111.23046875" xlink:href="#ArialMT-30"/>
      </g>
     </g>
    </g>
    <g id="ytick_8">
     <g id="line2d_40">
      <path clip-path="url(#p99c34eedbe)" d="M 30.81875 65.418125 
L 387.93875 65.418125 
" style="fill:none;stroke:#ffffff;stroke-linecap:round;stroke-width:0.8;"/>
     </g>
     <g id="line2d_41">
      <g>
       <use style="fill:#262626;stroke:#262626;stroke-width:0.8;" x="30.81875" xlink:href="#m8ba8561599" y="65.418125"/>
      </g>
     </g>
     <g id="line2d_42">
      <g>
       <use style="fill:#262626;stroke:#262626;stroke-width:0.8;" x="387.93875" xlink:href="#m8ba8561599" y="65.418125"/>
      </g>
     </g>
     <g id="text_14">
      <!-- 250 -->
      <g style="fill:#262626;" transform="translate(11.8725 67.48625)scale(0.08 -0.08)">
       <use xlink:href="#ArialMT-32"/>
       <use x="55.615234375" xlink:href="#ArialMT-35"/>
       <use x="111.23046875" xlink:href="#ArialMT-30"/>
      </g>
     </g>
    </g>
    <g id="ytick_9">
     <g id="line2d_43">
      <path clip-path="url(#p99c34eedbe)" d="M 30.81875 38.138125 
L 387.93875 38.138125 
" style="fill:none;stroke:#ffffff;stroke-linecap:round;stroke-width:0.8;"/>
     </g>
     <g id="line2d_44">
      <g>
       <use style="fill:#262626;stroke:#262626;stroke-width:0.8;" x="30.81875" xlink:href="#m8ba8561599" y="38.138125"/>
      </g>
     </g>
     <g id="line2d_45">
      <g>
       <use style="fill:#262626;stroke:#262626;stroke-width:0.8;" x="387.93875" xlink:href="#m8ba8561599" y="38.138125"/>
      </g>
     </g>
     <g id="text_15">
      <!-- 300 -->
      <defs>
       <path d="M 4.203125 18.890625 
L 12.984375 20.0625 
Q 14.5 12.59375 18.140625 9.296875 
Q 21.78125 6 27 6 
Q 33.203125 6 37.46875 10.296875 
Q 41.75 14.59375 41.75 20.953125 
Q 41.75 27 37.796875 30.921875 
Q 33.84375 34.859375 27.734375 34.859375 
Q 25.25 34.859375 21.53125 33.890625 
L 22.515625 41.609375 
Q 23.390625 41.5 23.921875 41.5 
Q 29.546875 41.5 34.03125 44.421875 
Q 38.53125 47.359375 38.53125 53.46875 
Q 38.53125 58.296875 35.25 61.46875 
Q 31.984375 64.65625 26.8125 64.65625 
Q 21.6875 64.65625 18.265625 61.421875 
Q 14.84375 58.203125 13.875 51.765625 
L 5.078125 53.328125 
Q 6.6875 62.15625 12.390625 67.015625 
Q 18.109375 71.875 26.609375 71.875 
Q 32.46875 71.875 37.390625 69.359375 
Q 42.328125 66.84375 44.9375 62.5 
Q 47.5625 58.15625 47.5625 53.265625 
Q 47.5625 48.640625 45.0625 44.828125 
Q 42.578125 41.015625 37.703125 38.765625 
Q 44.046875 37.3125 47.5625 32.6875 
Q 51.078125 28.078125 51.078125 21.140625 
Q 51.078125 11.765625 44.234375 5.25 
Q 37.40625 -1.265625 26.953125 -1.265625 
Q 17.53125 -1.265625 11.296875 4.34375 
Q 5.078125 9.96875 4.203125 18.890625 
" id="ArialMT-33"/>
      </defs>
      <g style="fill:#262626;" transform="translate(11.8725 40.20625)scale(0.08 -0.08)">
       <use xlink:href="#ArialMT-33"/>
       <use x="55.615234375" xlink:href="#ArialMT-30"/>
       <use x="111.23046875" xlink:href="#ArialMT-30"/>
      </g>
     </g>
    </g>
    <g id="ytick_10">
     <g id="line2d_46">
      <path clip-path="url(#p99c34eedbe)" d="M 30.81875 10.858125 
L 387.93875 10.858125 
" style="fill:none;stroke:#ffffff;stroke-linecap:round;stroke-width:0.8;"/>
     </g>
     <g id="line2d_47">
      <g>
       <use style="fill:#262626;stroke:#262626;stroke-width:0.8;" x="30.81875" xlink:href="#m8ba8561599" y="10.858125"/>
      </g>
     </g>
     <g id="line2d_48">
      <g>
       <use style="fill:#262626;stroke:#262626;stroke-width:0.8;" x="387.93875" xlink:href="#m8ba8561599" y="10.858125"/>
      </g>
     </g>
     <g id="text_16">
      <!-- 350 -->
      <g style="fill:#262626;" transform="translate(11.8725 12.92625)scale(0.08 -0.08)">
       <use xlink:href="#ArialMT-33"/>
       <use x="55.615234375" xlink:href="#ArialMT-35"/>
       <use x="111.23046875" xlink:href="#ArialMT-30"/>
      </g>
     </g>
    </g>
   </g>
   <g id="line2d_49">
    <path clip-path="url(#p99c34eedbe)" d="M 30.81875 186.864606 
L 36.77075 183.991352 
L 42.72275 183.530884 
L 48.67475 186.4827 
L 54.62675 175.893217 
L 60.57875 169.834749 
L 66.53075 161.838148 
L 72.48275 163.387287 
L 78.43475 134.240713 
L 84.38675 184.577838 
L 90.33875 199.647992 
L 96.29075 181.307317 
L 102.24275 191.232141 
L 108.19475 142.617828 
L 114.14675 165.079503 
L 120.09875 146.645054 
L 126.05075 172.153894 
L 132.00275 184.142971 
L 137.95475 194.662392 
L 143.90675 173.237256 
L 149.85875 194.08262 
L 155.81075 183.903944 
L 161.76275 193.020995 
L 167.71475 172.829151 
L 173.66675 182.339556 
L 179.61875 187.414696 
L 185.57075 162.524178 
L 191.52275 153.495666 
L 197.47475 196.390792 
L 203.42675 201.714537 
L 209.37875 190.503637 
L 215.33075 193.752573 
L 221.28275 168.472934 
L 227.23475 186.36085 
L 233.18675 159.141448 
L 239.13875 180.679576 
L 245.09075 193.830585 
L 251.04275 200.980052 
L 256.99475 148.645874 
L 262.94675 192.178261 
L 268.89875 169.561169 
L 274.85075 180.719056 
L 280.80275 109.644297 
L 286.75475 178.241011 
L 292.70675 180.660801 
L 298.65875 187.306207 
L 304.61075 200.76423 
L 310.56275 190.216168 
L 316.51475 184.87106 
L 322.46675 196.352371 
L 328.41875 196.215007 
L 334.37075 180.008404 
L 340.32275 172.544114 
L 346.27475 190.03321 
L 352.22675 185.498479 
L 358.17875 168.147139 
L 364.13075 113.148971 
L 370.08275 192.040508 
L 376.03475 171.99279 
L 381.98675 177.351384 
L 387.93875 177.646451 
" style="fill:none;stroke:#0072b2;stroke-linecap:round;stroke-width:1.4;"/>
    <defs>
     <path d="M 0 -2.8 
L -0.628639 -0.865248 
L -2.662958 -0.865248 
L -1.01716 0.330495 
L -1.645799 2.265248 
L -0 1.069505 
L 1.645799 2.265248 
L 1.01716 0.330495 
L 2.662958 -0.865248 
L 0.628639 -0.865248 
z
" id="m8c16df0787"/>
    </defs>
    <g clip-path="url(#p99c34eedbe)">
     <use style="fill:#0072b2;" x="30.81875" xlink:href="#m8c16df0787" y="186.864606162"/>
     <use style="fill:#0072b2;" x="36.77075" xlink:href="#m8c16df0787" y="183.991352468"/>
     <use style="fill:#0072b2;" x="42.72275" xlink:href="#m8c16df0787" y="183.530884497"/>
     <use style="fill:#0072b2;" x="48.67475" xlink:href="#m8c16df0787" y="186.482700134"/>
     <use style="fill:#0072b2;" x="54.62675" xlink:href="#m8c16df0787" y="175.893216959"/>
     <use style="fill:#0072b2;" x="60.57875" xlink:href="#m8c16df0787" y="169.834748769"/>
     <use style="fill:#0072b2;" x="66.53075" xlink:href="#m8c16df0787" y="161.838147585"/>
     <use style="fill:#0072b2;" x="72.48275" xlink:href="#m8c16df0787" y="163.387286562"/>
     <use style="fill:#0072b2;" x="78.43475" xlink:href="#m8c16df0787" y="134.240712682"/>
     <use style="fill:#0072b2;" x="84.38675" xlink:href="#m8c16df0787" y="184.577837522"/>
     <use style="fill:#0072b2;" x="90.33875" xlink:href="#m8c16df0787" y="199.647991627"/>
     <use style="fill:#0072b2;" x="96.29075" xlink:href="#m8c16df0787" y="181.307316733"/>
     <use style="fill:#0072b2;" x="102.24275" xlink:href="#m8c16df0787" y="191.23214079"/>
     <use style="fill:#0072b2;" x="108.19475" xlink:href="#m8c16df0787" y="142.617828002"/>
     <use style="fill:#0072b2;" x="114.14675" xlink:href="#m8c16df0787" y="165.079503073"/>
     <use style="fill:#0072b2;" x="120.09875" xlink:href="#m8c16df0787" y="146.645053832"/>
     <use style="fill:#0072b2;" x="126.05075" xlink:href="#m8c16df0787" y="172.15389391"/>
     <use style="fill:#0072b2;" x="132.00275" xlink:href="#m8c16df0787" y="184.142971139"/>
     <use style="fill:#0072b2;" x="137.95475" xlink:href="#m8c16df0787" y="194.662391922"/>
     <use style="fill:#0072b2;" x="143.90675" xlink:href="#m8c16df0787" y="173.23725604"/>
     <use style="fill:#0072b2;" x="149.85875" xlink:href="#m8c16df0787" y="194.082620283"/>
     <use style="fill:#0072b2;" x="155.81075" xlink:href="#m8c16df0787" y="183.903943704"/>
     <use style="fill:#0072b2;" x="161.76275" xlink:href="#m8c16df0787" y="193.020994995"/>
     <use style="fill:#0072b2;" x="167.71475" xlink:href="#m8c16df0787" y="172.82915144"/>
     <use style="fill:#0072b2;" x="173.66675" xlink:href="#m8c16df0787" y="182.339555531"/>
     <use style="fill:#0072b2;" x="179.61875" xlink:href="#m8c16df0787" y="187.41469589"/>
     <use style="fill:#0072b2;" x="185.57075" xlink:href="#m8c16df0787" y="162.524177992"/>
     <use style="fill:#0072b2;" x="191.52275" xlink:href="#m8c16df0787" y="153.495665734"/>
     <use style="fill:#0072b2;" x="197.47475" xlink:href="#m8c16df0787" y="196.390791549"/>
     <use style="fill:#0072b2;" x="203.42675" xlink:href="#m8c16df0787" y="201.714536999"/>
     <use style="fill:#0072b2;" x="209.37875" xlink:href="#m8c16df0787" y="190.503637419"/>
     <use style="fill:#0072b2;" x="215.33075" xlink:href="#m8c16df0787" y="193.752572661"/>
     <use style="fill:#0072b2;" x="221.28275" xlink:href="#m8c16df0787" y="168.472933671"/>
     <use style="fill:#0072b2;" x="227.23475" xlink:href="#m8c16df0787" y="186.360849936"/>
     <use style="fill:#0072b2;" x="233.18675" xlink:href="#m8c16df0787" y="159.14144839"/>
     <use style="fill:#0072b2;" x="239.13875" xlink:href="#m8c16df0787" y="180.679575619"/>
     <use style="fill:#0072b2;" x="245.09075" xlink:href="#m8c16df0787" y="193.830585236"/>
     <use style="fill:#0072b2;" x="251.04275" xlink:href="#m8c16df0787" y="200.980051528"/>
     <use style="fill:#0072b2;" x="256.99475" xlink:href="#m8c16df0787" y="148.645873956"/>
     <use style="fill:#0072b2;" x="262.94675" xlink:href="#m8c16df0787" y="192.17826063"/>
     <use style="fill:#0072b2;" x="268.89875" xlink:href="#m8c16df0787" y="169.56116922"/>
     <use style="fill:#0072b2;" x="274.85075" xlink:href="#m8c16df0787" y="180.719055892"/>
     <use style="fill:#0072b2;" x="280.80275" xlink:href="#m8c16df0787" y="109.644297099"/>
     <use style="fill:#0072b2;" x="286.75475" xlink:href="#m8c16df0787" y="178.241010608"/>
     <use style="fill:#0072b2;" x="292.70675" xlink:href="#m8c16df0787" y="180.66080075"/>
     <use style="fill:#0072b2;" x="298.65875" xlink:href="#m8c16df0787" y="187.306206565"/>
     <use style="fill:#0072b2;" x="304.61075" xlink:href="#m8c16df0787" y="200.764230362"/>
     <use style="fill:#0072b2;" x="310.56275" xlink:href="#m8c16df0787" y="190.216167639"/>
     <use style="fill:#0072b2;" x="316.51475" xlink:href="#m8c16df0787" y="184.871060098"/>
     <use style="fill:#0072b2;" x="322.46675" xlink:href="#m8c16df0787" y="196.352371252"/>
     <use style="fill:#0072b2;" x="328.41875" xlink:href="#m8c16df0787" y="196.215007471"/>
     <use style="fill:#0072b2;" x="334.37075" xlink:href="#m8c16df0787" y="180.008403515"/>
     <use style="fill:#0072b2;" x="340.32275" xlink:href="#m8c16df0787" y="172.544114019"/>
     <use style="fill:#0072b2;" x="346.27475" xlink:href="#m8c16df0787" y="190.03320975"/>
     <use style="fill:#0072b2;" x="352.22675" xlink:href="#m8c16df0787" y="185.498478764"/>
     <use style="fill:#0072b2;" x="358.17875" xlink:href="#m8c16df0787" y="168.147138732"/>
     <use style="fill:#0072b2;" x="364.13075" xlink:href="#m8c16df0787" y="113.148970727"/>
     <use style="fill:#0072b2;" x="370.08275" xlink:href="#m8c16df0787" y="192.040507763"/>
     <use style="fill:#0072b2;" x="376.03475" xlink:href="#m8c16df0787" y="171.99278998"/>
     <use style="fill:#0072b2;" x="381.98675" xlink:href="#m8c16df0787" y="177.351383523"/>
     <use style="fill:#0072b2;" x="387.93875" xlink:href="#m8c16df0787" y="177.646451441"/>
    </g>
   </g>
   <g id="line2d_50">
    <path clip-path="url(#p99c34eedbe)" d="M 30.81875 121.392606 
L 36.77075 130.522552 
L 42.72275 120.896004 
L 48.67475 178.96155 
L 54.62675 128.753377 
L 60.57875 156.194749 
L 66.53075 153.410902 
L 72.48275 136.584963 
L 78.43475 130.813137 
L 84.38675 96.190638 
L 90.33875 119.420258 
L 96.29075 127.838517 
L 102.24275 175.955341 
L 108.19475 119.702628 
L 114.14675 190.831823 
L 120.09875 219.344796 
L 126.05075 160.150694 
L 132.00275 203.238971 
L 137.95475 195.535352 
L 143.90675 192.660616 
L 149.85875 195.17382 
L 155.81075 238.828306 
L 161.76275 203.304215 
L 167.71475 165.736351 
L 173.66675 130.945334 
L 179.61875 136.563954 
L 185.57075 108.640392 
L 191.52275 123.561384 
L 197.47475 87.270792 
L 203.42675 89.800913 
L 209.37875 84.371013 
L 215.33075 97.817437 
L 221.28275 93.852916 
L 227.23475 85.513 
L 233.18675 103.511762 
L 239.13875 91.528536 
L 245.09075 131.566625 
L 251.04275 115.866452 
L 256.99475 67.133234 
L 262.94675 95.245189 
L 268.89875 123.100041 
L 274.85075 93.882794 
L 280.80275 114.489553 
L 286.75475 95.637171 
L 292.70675 137.861849 
L 298.65875 76.822207 
L 304.61075 93.20642 
L 310.56275 93.006162 
L 316.51475 94.25927 
L 322.46675 128.697971 
L 328.41875 132.674043 
L 334.37075 127.630804 
L 340.32275 113.619314 
L 346.27475 90.24297 
L 352.22675 126.476971 
L 358.17875 110.095299 
L 364.13075 154.632879 
L 370.08275 124.931708 
L 376.03475 112.84975 
L 381.98675 151.674066 
L 387.93875 124.177651 
" style="fill:none;stroke:#009e73;stroke-linecap:round;stroke-width:1.4;"/>
    <defs>
     <path d="M 0 -2.8 
L -0.628639 -0.865248 
L -2.662958 -0.865248 
L -1.01716 0.330495 
L -1.645799 2.265248 
L -0 1.069505 
L 1.645799 2.265248 
L 1.01716 0.330495 
L 2.662958 -0.865248 
L 0.628639 -0.865248 
z
" id="m8e8f55423f"/>
    </defs>
    <g clip-path="url(#p99c34eedbe)">
     <use style="fill:#009e73;" x="30.81875" xlink:href="#m8e8f55423f" y="121.392606162"/>
     <use style="fill:#009e73;" x="36.77075" xlink:href="#m8e8f55423f" y="130.522552468"/>
     <use style="fill:#009e73;" x="42.72275" xlink:href="#m8e8f55423f" y="120.896004497"/>
     <use style="fill:#009e73;" x="48.67475" xlink:href="#m8e8f55423f" y="178.961549866"/>
     <use style="fill:#009e73;" x="54.62675" xlink:href="#m8e8f55423f" y="128.753376959"/>
     <use style="fill:#009e73;" x="60.57875" xlink:href="#m8e8f55423f" y="156.194748769"/>
     <use style="fill:#009e73;" x="66.53075" xlink:href="#m8e8f55423f" y="153.410902415"/>
     <use style="fill:#009e73;" x="72.48275" xlink:href="#m8e8f55423f" y="136.584963438"/>
     <use style="fill:#009e73;" x="78.43475" xlink:href="#m8e8f55423f" y="130.813137318"/>
     <use style="fill:#009e73;" x="84.38675" xlink:href="#m8e8f55423f" y="96.1906375223"/>
     <use style="fill:#009e73;" x="90.33875" xlink:href="#m8e8f55423f" y="119.420258373"/>
     <use style="fill:#009e73;" x="96.29075" xlink:href="#m8e8f55423f" y="127.838516733"/>
     <use style="fill:#009e73;" x="102.24275" xlink:href="#m8e8f55423f" y="175.95534079"/>
     <use style="fill:#009e73;" x="108.19475" xlink:href="#m8e8f55423f" y="119.702628002"/>
     <use style="fill:#009e73;" x="114.14675" xlink:href="#m8e8f55423f" y="190.831823073"/>
     <use style="fill:#009e73;" x="120.09875" xlink:href="#m8e8f55423f" y="219.344796168"/>
     <use style="fill:#009e73;" x="126.05075" xlink:href="#m8e8f55423f" y="160.15069391"/>
     <use style="fill:#009e73;" x="132.00275" xlink:href="#m8e8f55423f" y="203.238971139"/>
     <use style="fill:#009e73;" x="137.95475" xlink:href="#m8e8f55423f" y="195.535351922"/>
     <use style="fill:#009e73;" x="143.90675" xlink:href="#m8e8f55423f" y="192.66061604"/>
     <use style="fill:#009e73;" x="149.85875" xlink:href="#m8e8f55423f" y="195.173820283"/>
     <use style="fill:#009e73;" x="155.81075" xlink:href="#m8e8f55423f" y="238.828306296"/>
     <use style="fill:#009e73;" x="161.76275" xlink:href="#m8e8f55423f" y="203.304215005"/>
     <use style="fill:#009e73;" x="167.71475" xlink:href="#m8e8f55423f" y="165.73635144"/>
     <use style="fill:#009e73;" x="173.66675" xlink:href="#m8e8f55423f" y="130.945334469"/>
     <use style="fill:#009e73;" x="179.61875" xlink:href="#m8e8f55423f" y="136.56395411"/>
     <use style="fill:#009e73;" x="185.57075" xlink:href="#m8e8f55423f" y="108.640392008"/>
     <use style="fill:#009e73;" x="191.52275" xlink:href="#m8e8f55423f" y="123.561384266"/>
     <use style="fill:#009e73;" x="197.47475" xlink:href="#m8e8f55423f" y="87.2707915488"/>
     <use style="fill:#009e73;" x="203.42675" xlink:href="#m8e8f55423f" y="89.8009130008"/>
     <use style="fill:#009e73;" x="209.37875" xlink:href="#m8e8f55423f" y="84.371012581"/>
     <use style="fill:#009e73;" x="215.33075" xlink:href="#m8e8f55423f" y="97.8174373392"/>
     <use style="fill:#009e73;" x="221.28275" xlink:href="#m8e8f55423f" y="93.8529163288"/>
     <use style="fill:#009e73;" x="227.23475" xlink:href="#m8e8f55423f" y="85.5130000642"/>
     <use style="fill:#009e73;" x="233.18675" xlink:href="#m8e8f55423f" y="103.51176161"/>
     <use style="fill:#009e73;" x="239.13875" xlink:href="#m8e8f55423f" y="91.5285356188"/>
     <use style="fill:#009e73;" x="245.09075" xlink:href="#m8e8f55423f" y="131.566624764"/>
     <use style="fill:#009e73;" x="251.04275" xlink:href="#m8e8f55423f" y="115.866451528"/>
     <use style="fill:#009e73;" x="256.99475" xlink:href="#m8e8f55423f" y="67.1332339559"/>
     <use style="fill:#009e73;" x="262.94675" xlink:href="#m8e8f55423f" y="95.24518937"/>
     <use style="fill:#009e73;" x="268.89875" xlink:href="#m8e8f55423f" y="123.10004078"/>
     <use style="fill:#009e73;" x="274.85075" xlink:href="#m8e8f55423f" y="93.8827941077"/>
     <use style="fill:#009e73;" x="280.80275" xlink:href="#m8e8f55423f" y="114.489552901"/>
     <use style="fill:#009e73;" x="286.75475" xlink:href="#m8e8f55423f" y="95.6371706082"/>
     <use style="fill:#009e73;" x="292.70675" xlink:href="#m8e8f55423f" y="137.86184925"/>
     <use style="fill:#009e73;" x="298.65875" xlink:href="#m8e8f55423f" y="76.8222065645"/>
     <use style="fill:#009e73;" x="304.61075" xlink:href="#m8e8f55423f" y="93.2064196378"/>
     <use style="fill:#009e73;" x="310.56275" xlink:href="#m8e8f55423f" y="93.0061623614"/>
     <use style="fill:#009e73;" x="316.51475" xlink:href="#m8e8f55423f" y="94.2592699015"/>
     <use style="fill:#009e73;" x="322.46675" xlink:href="#m8e8f55423f" y="128.697971252"/>
     <use style="fill:#009e73;" x="328.41875" xlink:href="#m8e8f55423f" y="132.674042529"/>
     <use style="fill:#009e73;" x="334.37075" xlink:href="#m8e8f55423f" y="127.630803515"/>
     <use style="fill:#009e73;" x="340.32275" xlink:href="#m8e8f55423f" y="113.619314019"/>
     <use style="fill:#009e73;" x="346.27475" xlink:href="#m8e8f55423f" y="90.2429697496"/>
     <use style="fill:#009e73;" x="352.22675" xlink:href="#m8e8f55423f" y="126.476971236"/>
     <use style="fill:#009e73;" x="358.17875" xlink:href="#m8e8f55423f" y="110.095298732"/>
     <use style="fill:#009e73;" x="364.13075" xlink:href="#m8e8f55423f" y="154.632879273"/>
     <use style="fill:#009e73;" x="370.08275" xlink:href="#m8e8f55423f" y="124.931707763"/>
     <use style="fill:#009e73;" x="376.03475" xlink:href="#m8e8f55423f" y="112.84974998"/>
     <use style="fill:#009e73;" x="381.98675" xlink:href="#m8e8f55423f" y="151.674066477"/>
     <use style="fill:#009e73;" x="387.93875" xlink:href="#m8e8f55423f" y="124.177651441"/>
    </g>
   </g>
   <g id="line2d_51">
    <path clip-path="url(#p99c34eedbe)" d="M 30.81875 136.346125 
L 36.77075 148.349325 
L 42.72275 139.183245 
L 48.67475 163.626125 
L 54.62675 154.678285 
L 60.57875 188.178125 
L 66.53075 113.430925 
L 72.48275 98.154125 
L 78.43475 63.235725 
L 84.38675 113.430925 
L 90.33875 117.250125 
L 96.29075 148.349325 
L 102.24275 186.541325 
L 108.19475 178.902925 
L 114.14675 227.570445 
L 120.09875 164.171725 
L 126.05075 189.814925 
L 132.00275 220.914125 
L 137.95475 202.691085 
L 143.90675 221.241485 
L 149.85875 202.909325 
L 155.81075 220.914125 
L 161.76275 194.507085 
L 167.71475 194.725325 
L 173.66675 111.466765 
L 179.61875 122.160525 
L 185.57075 69.346445 
L 191.52275 75.238925 
L 197.47475 92.698125 
L 203.42675 89.697325 
L 209.37875 73.056525 
L 215.33075 89.751885 
L 221.28275 60.507725 
L 227.23475 70.055725 
L 233.18675 60.835085 
L 239.13875 112.667085 
L 245.09075 123.579085 
L 251.04275 116.704525 
L 256.99475 120.305485 
L 262.94675 85.605325 
L 268.89875 90.843085 
L 274.85075 72.783725 
L 280.80275 22.315725 
L 286.75475 119.214285 
L 292.70675 116.704525 
L 298.65875 91.334125 
L 304.61075 92.152525 
L 310.56275 81.404205 
L 316.51475 77.312205 
L 322.46675 134.163725 
L 328.41875 127.070925 
L 334.37075 149.440525 
L 340.32275 142.893325 
L 346.27475 102.027885 
L 352.22675 110.157325 
L 358.17875 143.766285 
L 364.13075 65.963725 
L 370.08275 134.709325 
L 376.03475 142.675085 
L 381.98675 127.207325 
L 387.93875 148.349325 
" style="fill:none;stroke:#d55e00;stroke-linecap:round;stroke-width:1.4;"/>
    <defs>
     <path d="M 0 -2.8 
L -0.628639 -0.865248 
L -2.662958 -0.865248 
L -1.01716 0.330495 
L -1.645799 2.265248 
L -0 1.069505 
L 1.645799 2.265248 
L 1.01716 0.330495 
L 2.662958 -0.865248 
L 0.628639 -0.865248 
z
" id="m009764c422"/>
    </defs>
    <g clip-path="url(#p99c34eedbe)">
     <use style="fill:#d55e00;" x="30.81875" xlink:href="#m009764c422" y="136.346125"/>
     <use style="fill:#d55e00;" x="36.77075" xlink:href="#m009764c422" y="148.349325"/>
     <use style="fill:#d55e00;" x="42.72275" xlink:href="#m009764c422" y="139.183245"/>
     <use style="fill:#d55e00;" x="48.67475" xlink:href="#m009764c422" y="163.626125"/>
     <use style="fill:#d55e00;" x="54.62675" xlink:href="#m009764c422" y="154.678285"/>
     <use style="fill:#d55e00;" x="60.57875" xlink:href="#m009764c422" y="188.178125"/>
     <use style="fill:#d55e00;" x="66.53075" xlink:href="#m009764c422" y="113.430925"/>
     <use style="fill:#d55e00;" x="72.48275" xlink:href="#m009764c422" y="98.154125"/>
     <use style="fill:#d55e00;" x="78.43475" xlink:href="#m009764c422" y="63.235725"/>
     <use style="fill:#d55e00;" x="84.38675" xlink:href="#m009764c422" y="113.430925"/>
     <use style="fill:#d55e00;" x="90.33875" xlink:href="#m009764c422" y="117.250125"/>
     <use style="fill:#d55e00;" x="96.29075" xlink:href="#m009764c422" y="148.349325"/>
     <use style="fill:#d55e00;" x="102.24275" xlink:href="#m009764c422" y="186.541325"/>
     <use style="fill:#d55e00;" x="108.19475" xlink:href="#m009764c422" y="178.902925"/>
     <use style="fill:#d55e00;" x="114.14675" xlink:href="#m009764c422" y="227.570445"/>
     <use style="fill:#d55e00;" x="120.09875" xlink:href="#m009764c422" y="164.171725"/>
     <use style="fill:#d55e00;" x="126.05075" xlink:href="#m009764c422" y="189.814925"/>
     <use style="fill:#d55e00;" x="132.00275" xlink:href="#m009764c422" y="220.914125"/>
     <use style="fill:#d55e00;" x="137.95475" xlink:href="#m009764c422" y="202.691085"/>
     <use style="fill:#d55e00;" x="143.90675" xlink:href="#m009764c422" y="221.241485"/>
     <use style="fill:#d55e00;" x="149.85875" xlink:href="#m009764c422" y="202.909325"/>
     <use style="fill:#d55e00;" x="155.81075" xlink:href="#m009764c422" y="220.914125"/>
     <use style="fill:#d55e00;" x="161.76275" xlink:href="#m009764c422" y="194.507085"/>
     <use style="fill:#d55e00;" x="167.71475" xlink:href="#m009764c422" y="194.725325"/>
     <use style="fill:#d55e00;" x="173.66675" xlink:href="#m009764c422" y="111.466765"/>
     <use style="fill:#d55e00;" x="179.61875" xlink:href="#m009764c422" y="122.160525"/>
     <use style="fill:#d55e00;" x="185.57075" xlink:href="#m009764c422" y="69.346445"/>
     <use style="fill:#d55e00;" x="191.52275" xlink:href="#m009764c422" y="75.238925"/>
     <use style="fill:#d55e00;" x="197.47475" xlink:href="#m009764c422" y="92.698125"/>
     <use style="fill:#d55e00;" x="203.42675" xlink:href="#m009764c422" y="89.697325"/>
     <use style="fill:#d55e00;" x="209.37875" xlink:href="#m009764c422" y="73.056525"/>
     <use style="fill:#d55e00;" x="215.33075" xlink:href="#m009764c422" y="89.751885"/>
     <use style="fill:#d55e00;" x="221.28275" xlink:href="#m009764c422" y="60.507725"/>
     <use style="fill:#d55e00;" x="227.23475" xlink:href="#m009764c422" y="70.055725"/>
     <use style="fill:#d55e00;" x="233.18675" xlink:href="#m009764c422" y="60.835085"/>
     <use style="fill:#d55e00;" x="239.13875" xlink:href="#m009764c422" y="112.667085"/>
     <use style="fill:#d55e00;" x="245.09075" xlink:href="#m009764c422" y="123.579085"/>
     <use style="fill:#d55e00;" x="251.04275" xlink:href="#m009764c422" y="116.704525"/>
     <use style="fill:#d55e00;" x="256.99475" xlink:href="#m009764c422" y="120.305485"/>
     <use style="fill:#d55e00;" x="262.94675" xlink:href="#m009764c422" y="85.605325"/>
     <use style="fill:#d55e00;" x="268.89875" xlink:href="#m009764c422" y="90.843085"/>
     <use style="fill:#d55e00;" x="274.85075" xlink:href="#m009764c422" y="72.783725"/>
     <use style="fill:#d55e00;" x="280.80275" xlink:href="#m009764c422" y="22.315725"/>
     <use style="fill:#d55e00;" x="286.75475" xlink:href="#m009764c422" y="119.214285"/>
     <use style="fill:#d55e00;" x="292.70675" xlink:href="#m009764c422" y="116.704525"/>
     <use style="fill:#d55e00;" x="298.65875" xlink:href="#m009764c422" y="91.334125"/>
     <use style="fill:#d55e00;" x="304.61075" xlink:href="#m009764c422" y="92.152525"/>
     <use style="fill:#d55e00;" x="310.56275" xlink:href="#m009764c422" y="81.404205"/>
     <use style="fill:#d55e00;" x="316.51475" xlink:href="#m009764c422" y="77.312205"/>
     <use style="fill:#d55e00;" x="322.46675" xlink:href="#m009764c422" y="134.163725"/>
     <use style="fill:#d55e00;" x="328.41875" xlink:href="#m009764c422" y="127.070925"/>
     <use style="fill:#d55e00;" x="334.37075" xlink:href="#m009764c422" y="149.440525"/>
     <use style="fill:#d55e00;" x="340.32275" xlink:href="#m009764c422" y="142.893325"/>
     <use style="fill:#d55e00;" x="346.27475" xlink:href="#m009764c422" y="102.027885"/>
     <use style="fill:#d55e00;" x="352.22675" xlink:href="#m009764c422" y="110.157325"/>
     <use style="fill:#d55e00;" x="358.17875" xlink:href="#m009764c422" y="143.766285"/>
     <use style="fill:#d55e00;" x="364.13075" xlink:href="#m009764c422" y="65.963725"/>
     <use style="fill:#d55e00;" x="370.08275" xlink:href="#m009764c422" y="134.709325"/>
     <use style="fill:#d55e00;" x="376.03475" xlink:href="#m009764c422" y="142.675085"/>
     <use style="fill:#d55e00;" x="381.98675" xlink:href="#m009764c422" y="127.207325"/>
     <use style="fill:#d55e00;" x="387.93875" xlink:href="#m009764c422" y="148.349325"/>
    </g>
   </g>
   <g id="patch_3">
    <path d="M 30.81875 10.858125 
L 387.93875 10.858125 
" style="fill:none;"/>
   </g>
   <g id="patch_4">
    <path d="M 387.93875 256.378125 
L 387.93875 10.858125 
" style="fill:none;"/>
   </g>
   <g id="patch_5">
    <path d="M 30.81875 256.378125 
L 387.93875 256.378125 
" style="fill:none;"/>
   </g>
   <g id="patch_6">
    <path d="M 30.81875 256.378125 
L 30.81875 10.858125 
" style="fill:none;"/>
   </g>
   <g id="legend_1">
    <g id="line2d_52">
     <path d="M 333.44125 20.984375 
L 349.44125 20.984375 
" style="fill:none;stroke:#0072b2;stroke-linecap:round;stroke-width:1.4;"/>
    </g>
    <g id="line2d_53">
     <g>
      <use style="fill:#0072b2;" x="341.44125" xlink:href="#m8c16df0787" y="20.984375"/>
     </g>
    </g>
    <g id="text_17">
     <!-- Error -->
     <defs>
      <path d="M 7.90625 0 
L 7.90625 71.578125 
L 59.671875 71.578125 
L 59.671875 63.140625 
L 17.390625 63.140625 
L 17.390625 41.21875 
L 56.984375 41.21875 
L 56.984375 32.8125 
L 17.390625 32.8125 
L 17.390625 8.453125 
L 61.328125 8.453125 
L 61.328125 0 
z
" id="ArialMT-45"/>
      <path d="M 3.328125 25.921875 
Q 3.328125 40.328125 11.328125 47.265625 
Q 18.015625 53.03125 27.640625 53.03125 
Q 38.328125 53.03125 45.109375 46.015625 
Q 51.90625 39.015625 51.90625 26.65625 
Q 51.90625 16.65625 48.90625 10.90625 
Q 45.90625 5.171875 40.15625 2 
Q 34.421875 -1.171875 27.640625 -1.171875 
Q 16.75 -1.171875 10.03125 5.8125 
Q 3.328125 12.796875 3.328125 25.921875 
M 12.359375 25.921875 
Q 12.359375 15.96875 16.703125 11.015625 
Q 21.046875 6.0625 27.640625 6.0625 
Q 34.1875 6.0625 38.53125 11.03125 
Q 42.875 16.015625 42.875 26.21875 
Q 42.875 35.84375 38.5 40.796875 
Q 34.125 45.75 27.640625 45.75 
Q 21.046875 45.75 16.703125 40.8125 
Q 12.359375 35.890625 12.359375 25.921875 
" id="ArialMT-6f"/>
      <path d="M 6.5 0 
L 6.5 51.859375 
L 14.40625 51.859375 
L 14.40625 44 
Q 17.4375 49.515625 20 51.265625 
Q 22.5625 53.03125 25.640625 53.03125 
Q 30.078125 53.03125 34.671875 50.203125 
L 31.640625 42.046875 
Q 28.421875 43.953125 25.203125 43.953125 
Q 22.3125 43.953125 20.015625 42.21875 
Q 17.71875 40.484375 16.75 37.40625 
Q 15.28125 32.71875 15.28125 27.15625 
L 15.28125 0 
z
" id="ArialMT-72"/>
     </defs>
     <g style="fill:#262626;" transform="translate(355.84125 23.784375)scale(0.08 -0.08)">
      <use xlink:href="#ArialMT-45"/>
      <use x="66.69921875" xlink:href="#ArialMT-72"/>
      <use x="100.0" xlink:href="#ArialMT-72"/>
      <use x="133.30078125" xlink:href="#ArialMT-6f"/>
      <use x="188.916015625" xlink:href="#ArialMT-72"/>
     </g>
    </g>
    <g id="line2d_54">
     <path d="M 333.44125 32.300625 
L 349.44125 32.300625 
" style="fill:none;stroke:#009e73;stroke-linecap:round;stroke-width:1.4;"/>
    </g>
    <g id="line2d_55">
     <g>
      <use style="fill:#009e73;" x="341.44125" xlink:href="#m8e8f55423f" y="32.300625"/>
     </g>
    </g>
    <g id="text_18">
     <!-- Predict -->
     <defs>
      <path d="M 40.4375 19 
L 49.078125 17.875 
Q 47.65625 8.9375 41.8125 3.875 
Q 35.984375 -1.171875 27.484375 -1.171875 
Q 16.84375 -1.171875 10.375 5.78125 
Q 3.90625 12.75 3.90625 25.734375 
Q 3.90625 34.125 6.6875 40.421875 
Q 9.46875 46.734375 15.15625 49.875 
Q 20.84375 53.03125 27.546875 53.03125 
Q 35.984375 53.03125 41.359375 48.75 
Q 46.734375 44.484375 48.25 36.625 
L 39.703125 35.296875 
Q 38.484375 40.53125 35.375 43.15625 
Q 32.28125 45.796875 27.875 45.796875 
Q 21.234375 45.796875 17.078125 41.03125 
Q 12.9375 36.28125 12.9375 25.984375 
Q 12.9375 15.53125 16.9375 10.796875 
Q 20.953125 6.0625 27.390625 6.0625 
Q 32.5625 6.0625 36.03125 9.234375 
Q 39.5 12.40625 40.4375 19 
" id="ArialMT-63"/>
      <path d="M 42.09375 16.703125 
L 51.171875 15.578125 
Q 49.03125 7.625 43.21875 3.21875 
Q 37.40625 -1.171875 28.375 -1.171875 
Q 17 -1.171875 10.328125 5.828125 
Q 3.65625 12.84375 3.65625 25.484375 
Q 3.65625 38.578125 10.390625 45.796875 
Q 17.140625 53.03125 27.875 53.03125 
Q 38.28125 53.03125 44.875 45.953125 
Q 51.46875 38.875 51.46875 26.03125 
Q 51.46875 25.25 51.421875 23.6875 
L 12.75 23.6875 
Q 13.234375 15.140625 17.578125 10.59375 
Q 21.921875 6.0625 28.421875 6.0625 
Q 33.25 6.0625 36.671875 8.59375 
Q 40.09375 11.140625 42.09375 16.703125 
M 13.234375 30.90625 
L 42.1875 30.90625 
Q 41.609375 37.453125 38.875 40.71875 
Q 34.671875 45.796875 27.984375 45.796875 
Q 21.921875 45.796875 17.796875 41.75 
Q 13.671875 37.703125 13.234375 30.90625 
" id="ArialMT-65"/>
      <path d="M 40.234375 0 
L 40.234375 6.546875 
Q 35.296875 -1.171875 25.734375 -1.171875 
Q 19.53125 -1.171875 14.328125 2.25 
Q 9.125 5.671875 6.265625 11.796875 
Q 3.421875 17.921875 3.421875 25.875 
Q 3.421875 33.640625 6 39.96875 
Q 8.59375 46.296875 13.765625 49.65625 
Q 18.953125 53.03125 25.34375 53.03125 
Q 30.03125 53.03125 33.6875 51.046875 
Q 37.359375 49.078125 39.65625 45.90625 
L 39.65625 71.578125 
L 48.390625 71.578125 
L 48.390625 0 
z
M 12.453125 25.875 
Q 12.453125 15.921875 16.640625 10.984375 
Q 20.84375 6.0625 26.5625 6.0625 
Q 32.328125 6.0625 36.34375 10.765625 
Q 40.375 15.484375 40.375 25.140625 
Q 40.375 35.796875 36.265625 40.765625 
Q 32.171875 45.75 26.171875 45.75 
Q 20.3125 45.75 16.375 40.96875 
Q 12.453125 36.1875 12.453125 25.875 
" id="ArialMT-64"/>
      <path d="M 25.78125 7.859375 
L 27.046875 0.09375 
Q 23.34375 -0.6875 20.40625 -0.6875 
Q 15.625 -0.6875 12.984375 0.828125 
Q 10.359375 2.34375 9.28125 4.8125 
Q 8.203125 7.28125 8.203125 15.1875 
L 8.203125 45.015625 
L 1.765625 45.015625 
L 1.765625 51.859375 
L 8.203125 51.859375 
L 8.203125 64.703125 
L 16.9375 69.96875 
L 16.9375 51.859375 
L 25.78125 51.859375 
L 25.78125 45.015625 
L 16.9375 45.015625 
L 16.9375 14.703125 
Q 16.9375 10.9375 17.40625 9.859375 
Q 17.875 8.796875 18.921875 8.15625 
Q 19.96875 7.515625 21.921875 7.515625 
Q 23.390625 7.515625 25.78125 7.859375 
" id="ArialMT-74"/>
      <path d="M 7.71875 0 
L 7.71875 71.578125 
L 34.71875 71.578125 
Q 41.84375 71.578125 45.609375 70.90625 
Q 50.875 70.015625 54.4375 67.546875 
Q 58.015625 65.09375 60.1875 60.640625 
Q 62.359375 56.203125 62.359375 50.875 
Q 62.359375 41.75 56.546875 35.421875 
Q 50.734375 29.109375 35.546875 29.109375 
L 17.1875 29.109375 
L 17.1875 0 
z
M 17.1875 37.546875 
L 35.6875 37.546875 
Q 44.875 37.546875 48.734375 40.96875 
Q 52.59375 44.390625 52.59375 50.59375 
Q 52.59375 55.078125 50.3125 58.265625 
Q 48.046875 61.46875 44.34375 62.5 
Q 41.9375 63.140625 35.5 63.140625 
L 17.1875 63.140625 
z
" id="ArialMT-50"/>
      <path d="M 6.640625 61.46875 
L 6.640625 71.578125 
L 15.4375 71.578125 
L 15.4375 61.46875 
z
M 6.640625 0 
L 6.640625 51.859375 
L 15.4375 51.859375 
L 15.4375 0 
z
" id="ArialMT-69"/>
     </defs>
     <g style="fill:#262626;" transform="translate(355.84125 35.100625)scale(0.08 -0.08)">
      <use xlink:href="#ArialMT-50"/>
      <use x="66.69921875" xlink:href="#ArialMT-72"/>
      <use x="100.0" xlink:href="#ArialMT-65"/>
      <use x="155.615234375" xlink:href="#ArialMT-64"/>
      <use x="211.23046875" xlink:href="#ArialMT-69"/>
      <use x="233.447265625" xlink:href="#ArialMT-63"/>
      <use x="283.447265625" xlink:href="#ArialMT-74"/>
     </g>
    </g>
    <g id="line2d_56">
     <path d="M 333.44125 43.616875 
L 349.44125 43.616875 
" style="fill:none;stroke:#d55e00;stroke-linecap:round;stroke-width:1.4;"/>
    </g>
    <g id="line2d_57">
     <g>
      <use style="fill:#d55e00;" x="341.44125" xlink:href="#m009764c422" y="43.616875"/>
     </g>
    </g>
    <g id="text_19">
     <!-- Real -->
     <defs>
      <path d="M 7.859375 0 
L 7.859375 71.578125 
L 39.59375 71.578125 
Q 49.171875 71.578125 54.140625 69.640625 
Q 59.125 67.71875 62.109375 62.828125 
Q 65.09375 57.953125 65.09375 52.046875 
Q 65.09375 44.4375 60.15625 39.203125 
Q 55.21875 33.984375 44.921875 32.5625 
Q 48.6875 30.765625 50.640625 29 
Q 54.78125 25.203125 58.5 19.484375 
L 70.953125 0 
L 59.03125 0 
L 49.5625 14.890625 
Q 45.40625 21.34375 42.71875 24.75 
Q 40.046875 28.171875 37.921875 29.53125 
Q 35.796875 30.90625 33.59375 31.453125 
Q 31.984375 31.78125 28.328125 31.78125 
L 17.328125 31.78125 
L 17.328125 0 
z
M 17.328125 39.984375 
L 37.703125 39.984375 
Q 44.1875 39.984375 47.84375 41.328125 
Q 51.515625 42.671875 53.421875 45.625 
Q 55.328125 48.578125 55.328125 52.046875 
Q 55.328125 57.125 51.640625 60.390625 
Q 47.953125 63.671875 39.984375 63.671875 
L 17.328125 63.671875 
z
" id="ArialMT-52"/>
      <path d="M 6.390625 0 
L 6.390625 71.578125 
L 15.1875 71.578125 
L 15.1875 0 
z
" id="ArialMT-6c"/>
      <path d="M 40.4375 6.390625 
Q 35.546875 2.25 31.03125 0.53125 
Q 26.515625 -1.171875 21.34375 -1.171875 
Q 12.796875 -1.171875 8.203125 3 
Q 3.609375 7.171875 3.609375 13.671875 
Q 3.609375 17.484375 5.34375 20.625 
Q 7.078125 23.78125 9.890625 25.6875 
Q 12.703125 27.59375 16.21875 28.5625 
Q 18.796875 29.25 24.03125 29.890625 
Q 34.671875 31.15625 39.703125 32.90625 
Q 39.75 34.71875 39.75 35.203125 
Q 39.75 40.578125 37.25 42.78125 
Q 33.890625 45.75 27.25 45.75 
Q 21.046875 45.75 18.09375 43.578125 
Q 15.140625 41.40625 13.71875 35.890625 
L 5.125 37.0625 
Q 6.296875 42.578125 8.984375 45.96875 
Q 11.671875 49.359375 16.75 51.1875 
Q 21.828125 53.03125 28.515625 53.03125 
Q 35.15625 53.03125 39.296875 51.46875 
Q 43.453125 49.90625 45.40625 47.53125 
Q 47.359375 45.171875 48.140625 41.546875 
Q 48.578125 39.3125 48.578125 33.453125 
L 48.578125 21.734375 
Q 48.578125 9.46875 49.140625 6.21875 
Q 49.703125 2.984375 51.375 0 
L 42.1875 0 
Q 40.828125 2.734375 40.4375 6.390625 
M 39.703125 26.03125 
Q 34.90625 24.078125 25.34375 22.703125 
Q 19.921875 21.921875 17.671875 20.9375 
Q 15.4375 19.96875 14.203125 18.09375 
Q 12.984375 16.21875 12.984375 13.921875 
Q 12.984375 10.40625 15.640625 8.0625 
Q 18.3125 5.71875 23.4375 5.71875 
Q 28.515625 5.71875 32.46875 7.9375 
Q 36.421875 10.15625 38.28125 14.015625 
Q 39.703125 17 39.703125 22.796875 
z
" id="ArialMT-61"/>
     </defs>
     <g style="fill:#262626;" transform="translate(355.84125 46.416875)scale(0.08 -0.08)">
      <use xlink:href="#ArialMT-52"/>
      <use x="72.216796875" xlink:href="#ArialMT-65"/>
      <use x="127.83203125" xlink:href="#ArialMT-61"/>
      <use x="183.447265625" xlink:href="#ArialMT-6c"/>
     </g>
    </g>
   </g>
  </g>
 </g>
 <defs>
  <clipPath id="p99c34eedbe">
   <rect height="245.52" width="357.12" x="30.81875" y="10.858125"/>
  </clipPath>
 </defs>
</svg>
